<svg xmlns="http://www.w3.org/2000/svg" version="1.1" xmlns:xlink="http://www.w3.org/1999/xlink" xmlns:svgjs="http://svgjs.dev/svgjs" width="2000" height="1247" viewBox="0 0 2000 1247"><g transform="matrix(1,0,0,1,-1.212108029589217,0.5603927125505379)"><svg viewBox="0 0 396 247" data-background-color="#ffffff" preserveAspectRatio="xMidYMid meet" height="1247" width="2000" xmlns="http://www.w3.org/2000/svg" xmlns:xlink="http://www.w3.org/1999/xlink"><g id="tight-bounds" transform="matrix(1,0,0,1,0.23999871737231615,-0.09999999999999432)"><svg viewBox="0 0 395.52 247.2" height="247.2" width="395.52"><g><svg></svg></g><g><svg viewBox="0 0 395.52 247.2" height="247.2" width="395.52"><g><g><path xmlns="http://www.w3.org/2000/svg" d="M174.324-0.011l0 59.351-49.722 0v-59.351zM174.324 247.211h-49.722l0-59.351 49.722 0zM50.887 247.211h-49.861l0-59.351h49.861zM1.026-0.011h49.861l0 59.351-49.861 0zM233.922 247.211l0-59.351 49.931 0v17.904h14.882c16.644 0 28.373-4.381 35.188-13.144 1.097-1.419 2.109-3.006 3.038-4.76h50.639c-4.271 12.159-10.527 22.693-18.767 31.604-17.154 18.498-40.798 27.747-70.933 27.747zM233.922-0.011h65.369c28.837 0 51.832 9.18 68.986 27.539 8.402 8.969 14.785 19.573 19.149 31.812h-50.442c-0.654-1.214-1.35-2.337-2.087-3.37-6.444-9.133-17.409-13.932-32.894-14.395h-18.15l0 17.765-49.931 0z" fill="#fce44d" fill-rule="nonzero" stroke="none" stroke-width="1" stroke-linecap="butt" stroke-linejoin="miter" stroke-miterlimit="10" stroke-dasharray="" stroke-dashoffset="0" font-family="none" font-weight="none" font-size="none" text-anchor="none" style="mix-blend-mode: normal" data-fill-palette-color="tertiary"></path></g></g><g transform="matrix(1,0,0,1,0,62.96924521365315)"><svg viewBox="0 0 395.52 121.26150957269368" height="121.26150957269368" width="395.52"><g><svg viewBox="0 0 395.52 121.26150957269368" height="121.26150957269368" width="395.52"><g><svg viewBox="0 0 753.4839029190196 231.00878718316469" height="121.26150957269368" width="395.52"><g transform="matrix(1,0,0,1,357.96390291901963,73.7155391807349)"><svg viewBox="0 0 395.52 83.5777088216949" height="83.5777088216949" width="395.52"><g id="textblocktransform"><svg viewBox="0 0 395.52 83.5777088216949" height="83.5777088216949" width="395.52" id="textblock"><g><svg viewBox="0 0 395.52 47.38169491525423" height="47.38169491525423" width="395.52"><g transform="matrix(1,0,0,1,0,0)"><svg width="395.52" viewBox="2.8600001335144043 -35.54999923706055 296.70001220703125 35.54999923706055" height="47.38169491525423" data-palette-color="#fce44d"><path d="M27.78-35.55L27.78 0 20.63 0 20.63-15.21 10.03-15.21 10.03 0 2.86 0 2.86-35.55 10.03-35.55 10.03-21.17 20.63-21.17 20.63-35.55 27.78-35.55ZM52.85 0L50.95-7.28 41.16-7.28 39.26 0 31.66 0 42.77-35.55 49.34-35.55 60.52 0 52.85 0ZM46.04-25.93L42.72-13.26 49.36-13.26 46.04-25.93ZM88.69-35.55L88.69 0 81.51 0 71.02-23.32 71.02 0 63.84 0 63.84-35.55 71.02-35.55 81.54-12.21 81.54-35.55 88.69-35.55ZM103.65 0L94.45 0 94.45-35.55 103.85-35.55Q110.08-35.55 113.77-31.59 117.47-27.64 117.55-20.75L117.55-20.75 117.55-14.99Q117.55-7.98 113.85-3.99 110.15 0 103.65 0L103.65 0ZM104.24-29.57L101.63-29.57 101.63-5.96 103.78-5.96Q107.37-5.96 108.83-7.85 110.3-9.74 110.37-14.38L110.37-14.38 110.37-20.56Q110.37-25.54 108.98-27.5 107.59-29.47 104.24-29.57L104.24-29.57ZM126.99-35.55L132.36-19.58 137.71-35.55 145.52-35.55 136-12.89 136 0 128.73 0 128.73-12.89 119.18-35.55 126.99-35.55ZM169.49 0L160.29 0 160.29-35.55 169.69-35.55Q175.91-35.55 179.61-31.59 183.31-27.64 183.38-20.75L183.38-20.75 183.38-14.99Q183.38-7.98 179.68-3.99 175.99 0 169.49 0L169.49 0ZM170.08-29.57L167.47-29.57 167.47-5.96 169.61-5.96Q173.2-5.96 174.67-7.85 176.13-9.74 176.21-14.38L176.21-14.38 176.21-20.56Q176.21-25.54 174.81-27.5 173.42-29.47 170.08-29.57L170.08-29.57ZM206.89 0L204.99-7.28 195.2-7.28 193.29 0 185.7 0 196.81-35.55 203.38-35.55 214.56 0 206.89 0ZM200.08-25.93L196.76-13.26 203.4-13.26 200.08-25.93ZM242.73-35.55L242.73 0 235.55 0 225.05-23.32 225.05 0 217.88 0 217.88-35.55 225.05-35.55 235.58-12.21 235.58-35.55 242.73-35.55ZM257.69 0L248.49 0 248.49-35.55 257.89-35.55Q264.11-35.55 267.81-31.59 271.51-27.64 271.58-20.75L271.58-20.75 271.58-14.99Q271.58-7.98 267.89-3.99 264.19 0 257.69 0L257.69 0ZM258.28-29.57L255.67-29.57 255.67-5.96 257.81-5.96Q261.4-5.96 262.87-7.85 264.33-9.74 264.41-14.38L264.41-14.38 264.41-20.56Q264.41-25.54 263.01-27.5 261.62-29.47 258.28-29.57L258.28-29.57ZM281.03-35.55L286.4-19.58 291.75-35.55 299.56-35.55 290.04-12.89 290.04 0 282.76 0 282.76-12.89 273.22-35.55 281.03-35.55Z" opacity="1" transform="matrix(1,0,0,1,0,0)" fill="#fce44d" class="undefined-text-0" data-fill-palette-color="primary" id="text-0"></path></svg></g></svg></g><g transform="matrix(1,0,0,1,0,54.29582136406779)"><svg viewBox="0 0 395.52 29.281887457627114" height="29.281887457627114" width="395.52"><g transform="matrix(1,0,0,1,0,0)"><svg width="395.52" viewBox="4.5 -38.79999923706055 651.0499877929688 48.19999694824219" height="29.281887457627114" data-palette-color="#f3a83c"><path d="M29.45 0L25.65 0Q23.95-2.6 21.83-5.15 19.7-7.7 17.35-9.95 15-12.2 12.58-14.05 10.15-15.9 7.9-17.15L7.9-17.15 7.9 0 4.5 0 4.5-34.65 7.9-34.65 7.9-18.5Q9.8-20.2 12.13-22.43 14.45-24.65 16.73-26.9 19-29.15 21-31.2 23-33.25 24.2-34.65L24.2-34.65 28.3-34.65Q26.85-33.1 24.8-30.98 22.75-28.85 20.45-26.6 18.15-24.35 15.88-22.18 13.6-20 11.8-18.35L11.8-18.35Q13.25-17.45 14.93-16.13 16.6-14.8 18.32-13.23 20.05-11.65 21.73-9.93 23.4-8.2 24.88-6.45 26.35-4.7 27.53-3.05 28.7-1.4 29.45 0L29.45 0ZM46.33 0L46.33-24.95Q47.78-25.35 50.23-25.85 52.68-26.35 56.23-26.35L56.23-26.35Q59.18-26.35 61.16-25.5 63.13-24.65 64.31-23.08 65.48-21.5 65.98-19.3 66.48-17.1 66.48-14.45L66.48-14.45 66.48 0 63.23 0 63.23-13.4Q63.23-16.15 62.86-18.05 62.48-19.95 61.61-21.15 60.73-22.35 59.31-22.88 57.88-23.4 55.73-23.4L55.73-23.4Q53.43-23.4 51.76-23.15 50.08-22.9 49.58-22.7L49.58-22.7 49.58 0 46.33 0ZM108.92-12.9L108.92-12.9Q108.92-9.85 108.04-7.35 107.17-4.85 105.59-3.1 104.02-1.35 101.87-0.38 99.72 0.6 97.12 0.6L97.12 0.6Q94.52 0.6 92.37-0.38 90.22-1.35 88.64-3.1 87.07-4.85 86.19-7.35 85.32-9.85 85.32-12.9L85.32-12.9Q85.32-15.95 86.19-18.45 87.07-20.95 88.64-22.73 90.22-24.5 92.37-25.48 94.52-26.45 97.12-26.45L97.12-26.45Q99.72-26.45 101.87-25.48 104.02-24.5 105.59-22.73 107.17-20.95 108.04-18.45 108.92-15.95 108.92-12.9ZM105.47-12.9L105.47-12.9Q105.47-17.75 103.22-20.63 100.97-23.5 97.12-23.5L97.12-23.5Q93.27-23.5 91.02-20.63 88.77-17.75 88.77-12.9L88.77-12.9Q88.77-8.05 91.02-5.2 93.27-2.35 97.12-2.35L97.12-2.35Q100.97-2.35 103.22-5.2 105.47-8.05 105.47-12.9ZM141.9-25.85L144.7-25.85Q145.15-23.35 145.87-20.53 146.6-17.7 147.47-14.78 148.35-11.85 149.32-9 150.3-6.15 151.3-3.65L151.3-3.65Q152.15-5.55 153.1-8.28 154.05-11 155-14.03 155.95-17.05 156.77-20.13 157.6-23.2 158.15-25.85L158.15-25.85 161.35-25.85Q159.55-18.25 157.42-11.95 155.3-5.65 152.75 0L152.75 0 149.7 0Q148.95-1.75 148.12-3.93 147.3-6.1 146.42-8.58 145.55-11.05 144.72-13.78 143.9-16.5 143.15-19.35L143.15-19.35Q142.4-16.5 141.57-13.78 140.75-11.05 139.87-8.58 139-6.1 138.17-3.93 137.35-1.75 136.6 0L136.6 0 133.5 0Q130.95-5.65 128.82-11.95 126.7-18.25 124.9-25.85L124.9-25.85 128.35-25.85Q128.9-23.2 129.72-20.13 130.55-17.05 131.5-14.03 132.45-11 133.42-8.3 134.4-5.6 135.25-3.7L135.25-3.7Q136.2-6.2 137.17-9.05 138.15-11.9 139-14.8 139.85-17.7 140.6-20.53 141.35-23.35 141.9-25.85L141.9-25.85ZM185.88-2.25L185.43 0.45Q183.78 0.4 182.56 0.03 181.33-0.35 180.51-1.13 179.68-1.9 179.26-3.13 178.83-4.35 178.83-6.2L178.83-6.2 178.83-38.2 182.08-38.8 182.08-6.3Q182.08-5.1 182.31-4.38 182.53-3.65 182.98-3.23 183.43-2.8 184.16-2.6 184.88-2.4 185.88-2.25L185.88-2.25ZM202.16-12.95L202.16-12.95Q202.16-16.35 203.14-18.88 204.11-21.4 205.69-23.1 207.26-24.8 209.29-25.63 211.31-26.45 213.46-26.45L213.46-26.45Q218.21-26.45 221.04-23.35 223.86-20.25 223.86-13.8L223.86-13.8Q223.86-13.4 223.84-13 223.81-12.6 223.76-12.25L223.76-12.25 205.61-12.25Q205.76-7.5 207.96-4.95 210.16-2.4 214.96-2.4L214.96-2.4Q217.61-2.4 219.16-2.9 220.71-3.4 221.41-3.75L221.41-3.75 222.01-0.95Q221.31-0.55 219.39 0 217.46 0.55 214.86 0.55L214.86 0.55Q211.46 0.55 209.06-0.45 206.66-1.45 205.11-3.25 203.56-5.05 202.86-7.53 202.16-10 202.16-12.95ZM205.71-15L220.51-15Q220.41-19.05 218.61-21.3 216.81-23.55 213.51-23.55L213.51-23.55Q211.76-23.55 210.39-22.85 209.01-22.15 207.99-20.98 206.96-19.8 206.39-18.25 205.81-16.7 205.71-15L205.71-15ZM263.75-38.8L263.75-0.8Q262.3-0.3 260.05 0.15 257.8 0.6 254.35 0.6L254.35 0.6Q251.5 0.6 249.17-0.33 246.85-1.25 245.17-3 243.5-4.75 242.57-7.25 241.65-9.75 241.65-12.9L241.65-12.9Q241.65-15.85 242.42-18.32 243.2-20.8 244.7-22.6 246.2-24.4 248.37-25.4 250.55-26.4 253.35-26.4L253.35-26.4Q255.9-26.4 257.77-25.68 259.65-24.95 260.5-24.3L260.5-24.3 260.5-38.2 263.75-38.8ZM260.5-3.05L260.5-21.15Q260.05-21.5 259.37-21.9 258.7-22.3 257.8-22.65 256.9-23 255.85-23.23 254.8-23.45 253.65-23.45L253.65-23.45Q251.25-23.45 249.62-22.6 248-21.75 247-20.33 246-18.9 245.55-16.98 245.1-15.05 245.1-12.9L245.1-12.9Q245.1-7.8 247.65-5.08 250.2-2.35 254.4-2.35L254.4-2.35Q256.8-2.35 258.27-2.58 259.75-2.8 260.5-3.05L260.5-3.05ZM301.28-1.3L301.28-3Q300.98-2.75 300.38-2.43 299.78-2.1 298.9-1.75 298.03-1.4 296.9-1.18 295.78-0.95 294.38-0.95L294.38-0.95Q292.13-0.95 290.03-1.65 287.93-2.35 286.35-3.85 284.78-5.35 283.83-7.73 282.88-10.1 282.88-13.5L282.88-13.5Q282.88-16.25 283.73-18.6 284.58-20.95 286.15-22.68 287.73-24.4 290-25.38 292.28-26.35 295.13-26.35L295.13-26.35Q298.73-26.35 300.9-25.88 303.08-25.4 304.48-24.95L304.48-24.95 304.48-1.35Q304.48 4.45 301.48 6.93 298.48 9.4 292.43 9.4L292.43 9.4Q289.93 9.4 287.9 9.03 285.88 8.65 284.43 8.15L284.43 8.15 285.08 5.2Q286.28 5.75 288.35 6.15 290.43 6.55 292.53 6.55L292.53 6.55Q297.13 6.55 299.2 4.78 301.28 3 301.28-1.3L301.28-1.3ZM301.23-6.05L301.23-22.7Q300.38-22.95 299.03-23.18 297.68-23.4 295.18-23.4L295.18-23.4Q293.08-23.4 291.45-22.68 289.83-21.95 288.68-20.63 287.53-19.3 286.93-17.48 286.33-15.65 286.33-13.45L286.33-13.45Q286.33-10.9 287.03-9.08 287.73-7.25 288.85-6.1 289.98-4.95 291.43-4.42 292.88-3.9 294.38-3.9L294.38-3.9Q296.58-3.9 298.4-4.55 300.23-5.2 301.23-6.05L301.23-6.05ZM323.61-12.95L323.61-12.95Q323.61-16.35 324.59-18.88 325.56-21.4 327.14-23.1 328.71-24.8 330.74-25.63 332.76-26.45 334.91-26.45L334.91-26.45Q339.66-26.45 342.49-23.35 345.31-20.25 345.31-13.8L345.31-13.8Q345.31-13.4 345.29-13 345.26-12.6 345.21-12.25L345.21-12.25 327.06-12.25Q327.21-7.5 329.41-4.95 331.61-2.4 336.41-2.4L336.41-2.4Q339.06-2.4 340.61-2.9 342.16-3.4 342.86-3.75L342.86-3.75 343.46-0.95Q342.76-0.55 340.84 0 338.91 0.55 336.31 0.55L336.31 0.55Q332.91 0.55 330.51-0.45 328.11-1.45 326.56-3.25 325.01-5.05 324.31-7.53 323.61-10 323.61-12.95ZM327.16-15L341.96-15Q341.86-19.05 340.06-21.3 338.26-23.55 334.96-23.55L334.96-23.55Q333.21-23.55 331.84-22.85 330.46-22.15 329.44-20.98 328.41-19.8 327.84-18.25 327.26-16.7 327.16-15L327.16-15ZM391.38-25.85L391.38 0 388.13 0 388.13-25.85 391.38-25.85ZM392.13-33.65L392.13-33.65Q392.13-32.5 391.43-31.83 390.73-31.15 389.73-31.15L389.73-31.15Q388.73-31.15 388.03-31.83 387.33-32.5 387.33-33.65L387.33-33.65Q387.33-34.8 388.03-35.48 388.73-36.15 389.73-36.15L389.73-36.15Q390.73-36.15 391.43-35.48 392.13-34.8 392.13-33.65ZM417.36-2.3L417.36-2.3Q420.16-2.3 421.98-3.23 423.81-4.15 423.81-6.35L423.81-6.35Q423.81-7.4 423.48-8.15 423.16-8.9 422.41-9.5 421.66-10.1 420.43-10.65 419.21-11.2 417.41-11.95L417.41-11.95Q415.96-12.55 414.66-13.18 413.36-13.8 412.36-14.63 411.36-15.45 410.76-16.6 410.16-17.75 410.16-19.4L410.16-19.4Q410.16-22.55 412.53-24.5 414.91-26.45 419.06-26.45L419.06-26.45Q421.71-26.45 423.43-26 425.16-25.55 425.86-25.2L425.86-25.2 425.11-22.3Q424.51-22.6 423.08-23.1 421.66-23.6 418.91-23.6L418.91-23.6Q417.81-23.6 416.83-23.38 415.86-23.15 415.11-22.68 414.36-22.2 413.91-21.48 413.46-20.75 413.46-19.7L413.46-19.7Q413.46-18.65 413.86-17.9 414.26-17.15 415.03-16.57 415.81-16 416.93-15.5 418.06-15 419.51-14.4L419.51-14.4Q421.01-13.8 422.38-13.18 423.76-12.55 424.81-11.68 425.86-10.8 426.51-9.58 427.16-8.35 427.16-6.5L427.16-6.5Q427.16-3 424.53-1.2 421.91 0.6 417.36 0.6L417.36 0.6Q413.96 0.6 412.16 0.03 410.36-0.55 409.76-0.85L409.76-0.85 410.61-3.8Q410.76-3.7 411.26-3.48 411.76-3.25 412.61-2.98 413.46-2.7 414.63-2.5 415.81-2.3 417.36-2.3ZM472.27-22.7L472.27-4.65Q472.72-4.3 473.4-3.9 474.07-3.5 474.97-3.15 475.87-2.8 476.92-2.58 477.97-2.35 479.12-2.35L479.12-2.35Q481.52-2.35 483.15-3.18 484.77-4 485.77-5.43 486.77-6.85 487.22-8.78 487.67-10.7 487.67-12.85L487.67-12.85Q487.67-17.95 485.12-20.68 482.57-23.4 478.37-23.4L478.37-23.4Q475.97-23.4 474.5-23.18 473.02-22.95 472.27-22.7L472.27-22.7ZM472.27-1.5L472.27 9.25 469.02 9.25 469.02-24.95Q470.47-25.45 472.72-25.9 474.97-26.35 478.42-26.35L478.42-26.35Q481.27-26.35 483.6-25.43 485.92-24.5 487.6-22.75 489.27-21 490.2-18.5 491.12-16 491.12-12.85L491.12-12.85Q491.12-9.9 490.35-7.43 489.57-4.95 488.07-3.18 486.57-1.4 484.4-0.4 482.22 0.6 479.42 0.6L479.42 0.6Q476.87 0.6 475-0.13 473.12-0.85 472.27-1.5L472.27-1.5ZM532.31-12.9L532.31-12.9Q532.31-9.85 531.43-7.35 530.56-4.85 528.98-3.1 527.41-1.35 525.26-0.38 523.11 0.6 520.51 0.6L520.51 0.6Q517.91 0.6 515.76-0.38 513.61-1.35 512.03-3.1 510.46-4.85 509.58-7.35 508.71-9.85 508.71-12.9L508.71-12.9Q508.71-15.95 509.58-18.45 510.46-20.95 512.03-22.73 513.61-24.5 515.76-25.48 517.91-26.45 520.51-26.45L520.51-26.45Q523.11-26.45 525.26-25.48 527.41-24.5 528.98-22.73 530.56-20.95 531.43-18.45 532.31-15.95 532.31-12.9ZM528.86-12.9L528.86-12.9Q528.86-17.75 526.61-20.63 524.36-23.5 520.51-23.5L520.51-23.5Q516.66-23.5 514.41-20.63 512.16-17.75 512.16-12.9L512.16-12.9Q512.16-8.05 514.41-5.2 516.66-2.35 520.51-2.35L520.51-2.35Q524.36-2.35 526.61-5.2 528.86-8.05 528.86-12.9ZM565.29-25.85L568.09-25.85Q568.54-23.35 569.26-20.53 569.99-17.7 570.86-14.78 571.74-11.85 572.71-9 573.69-6.15 574.69-3.65L574.69-3.65Q575.54-5.55 576.49-8.28 577.44-11 578.39-14.03 579.34-17.05 580.16-20.13 580.99-23.2 581.54-25.85L581.54-25.85 584.74-25.85Q582.94-18.25 580.81-11.95 578.69-5.65 576.14 0L576.14 0 573.09 0Q572.34-1.75 571.51-3.93 570.69-6.1 569.81-8.58 568.94-11.05 568.11-13.78 567.29-16.5 566.54-19.35L566.54-19.35Q565.79-16.5 564.96-13.78 564.14-11.05 563.26-8.58 562.39-6.1 561.56-3.93 560.74-1.75 559.99 0L559.99 0 556.89 0Q554.34-5.65 552.21-11.95 550.09-18.25 548.29-25.85L548.29-25.85 551.74-25.85Q552.29-23.2 553.11-20.13 553.94-17.05 554.89-14.03 555.84-11 556.81-8.3 557.79-5.6 558.64-3.7L558.64-3.7Q559.59-6.2 560.56-9.05 561.54-11.9 562.39-14.8 563.24-17.7 563.99-20.53 564.74-23.35 565.29-25.85L565.29-25.85ZM600.72-12.95L600.72-12.95Q600.72-16.35 601.7-18.88 602.67-21.4 604.25-23.1 605.82-24.8 607.85-25.63 609.87-26.45 612.02-26.45L612.02-26.45Q616.77-26.45 619.6-23.35 622.42-20.25 622.42-13.8L622.42-13.8Q622.42-13.4 622.4-13 622.37-12.6 622.32-12.25L622.32-12.25 604.17-12.25Q604.32-7.5 606.52-4.95 608.72-2.4 613.52-2.4L613.52-2.4Q616.17-2.4 617.72-2.9 619.27-3.4 619.97-3.75L619.97-3.75 620.57-0.95Q619.87-0.55 617.95 0 616.02 0.55 613.42 0.55L613.42 0.55Q610.02 0.55 607.62-0.45 605.22-1.45 603.67-3.25 602.12-5.05 601.42-7.53 600.72-10 600.72-12.95ZM604.27-15L619.07-15Q618.97-19.05 617.17-21.3 615.37-23.55 612.07-23.55L612.07-23.55Q610.32-23.55 608.95-22.85 607.57-22.15 606.55-20.98 605.52-19.8 604.95-18.25 604.37-16.7 604.27-15L604.27-15ZM650.55-26.35L650.55-26.35Q652.15-26.35 653.58-26.1 655-25.85 655.55-25.6L655.55-25.6 654.9-22.8Q654.5-23 653.28-23.23 652.05-23.45 650.05-23.45L650.05-23.45Q647.95-23.45 646.68-23.15 645.4-22.85 645-22.65L645-22.65 645 0 641.75 0 641.75-24.65Q643-25.2 645.2-25.78 647.4-26.35 650.55-26.35Z" opacity="1" transform="matrix(1,0,0,1,0,0)" fill="#f3a83c" class="undefined-text-1" data-fill-palette-color="secondary" id="text-1"></path></svg></g></svg></g></svg></g></svg></g><g><svg viewBox="0 0 351.0497764702061 231.00878718316469" height="231.00878718316469" width="351.0497764702061"><g><svg xmlns="http://www.w3.org/2000/svg" xmlns:xlink="http://www.w3.org/1999/xlink" version="1.1" x="0" y="0" viewBox="6.780619144439697 25 86.61937713623047 57" enable-background="new 0 0 100 100" xml:space="preserve" height="231.00878718316469" width="351.0497764702061" class="icon-icon-0" data-fill-palette-color="accent" id="icon-0"><g fill="#ff9302" data-fill-palette-color="accent"><g fill="#ff9302" data-fill-palette-color="accent"><path d="M35.7 82h-7.4c-1.2 0-1.8-0.5-2-1-0.7-1.3 0.8-3.5 1.3-4.2V56.2c0-1.5-1-2.3-3-2.3-0.6 0-1 0.1-1 0.1-0.2 0-0.4 0-0.5-0.1-0.1-0.1-0.2-0.3-0.2-0.5v-2.9c0-0.4 0.3-0.7 0.7-0.7h3.4v-0.5c0-0.4 0.3-0.7 0.7-0.7h0.9v-7.8H17.7c-0.4 0-0.7-0.3-0.7-0.7v-1.3h-3.9c-0.2 0-0.3-0.1-0.4-0.2l-2-1.7c-0.2-0.1-0.2-0.3-0.2-0.5v-0.6h-3c-0.4 0-0.7-0.3-0.7-0.7v-2.5C6.7 32.3 7 32 7.4 32h3v-0.6c0-0.2 0.1-0.4 0.2-0.5l2-1.7c0.1-0.1 0.3-0.2 0.4-0.2H17c0-0.6 0-1.2 0-1.7 0-0.4 0.3-0.7 0.7-0.7h0c2.5 0 5 0 7.5 0h3c0.2 0 0.4 0.1 0.5 0.3l0.1 0.2 0.7-1.5c0.1-0.2 0.3-0.4 0.6-0.4l4.7 0c0.2 0 0.4 0.1 0.6 0.3l0.9 1.5 0.7-1.4c0.1-0.2 0.3-0.4 0.6-0.4h12.9c0.4 0 0.7 0.3 0.7 0.7 0 0 0 0 0 0.1 0 0.2-0.1 1.9-0.1 2.1 0 0.7 0.2 1.1 0.6 1.7 0.9 1.2 1.9 1.8 3.1 1.8h13.7c0.3 0 0.8 0 0.9-0.1 0 0 0-0.2 0-0.8 0-0.6-0.1-0.8-0.1-0.8 0 0-0.1 0-0.2 0-0.2 0-0.4 0-0.6 0l-0.3 0c-1.4 0.1-2.6 0.1-3.7 0-4.7-0.4-5.6-2.4-5.4-4 0-0.3 0.3-0.6 0.7-0.6l9.1 0c1 0 2 0 3-0.1C72.9 25 74 25 75 25c1.2 0 2.3 0.1 3.2 0.2 1.3 0.2 2.1 1.6 2.7 2.7 0.2 0.3 0.3 0.5 0.5 0.8l1.9 2.9c0.2 0.3 0.1 0.6-0.1 0.8-0.1 0.1-1.8 1.8 0.2 6.6 0.1 0.2 8.8 19 10 37.8 0 0.1 0 0.1 0 0.2 0 0.4-0.3 0.7-0.7 0.7 0 0 0 0 0 0h-18c-0.2 0-0.3-0.1-0.5-0.2-0.1-0.1-0.2-0.3-0.2-0.5 0.1-5.6-0.3-20.9-3.1-23.8-0.3-0.3-0.5-0.4-0.8-0.4H52.8c-4.6 0-10.6-3.9-14.2-6.2-0.9-0.6-1.9-1.2-2.2-1.3h-0.2v3.2h0.3c0.4 0 0.7 0.3 0.7 0.7v0.5h3c0.4 0 0.7 0.3 0.7 0.7v2.9c0 0.2-0.1 0.4-0.2 0.5-0.1 0.1-0.3 0.2-0.5 0.2 0 0-0.3 0-0.7 0-2 0-3 0.8-3 2.3v20.7c0.6 0.7 2 2.9 1.3 4.2C37.5 81.5 37 82 35.7 82zM24.6 52.5c2.8 0 4.4 1.3 4.4 3.6v20.9c0 0.1 0 0.3-0.1 0.4-0.8 1-1.5 2.5-1.3 3 0.1 0.1 0.4 0.2 0.8 0.2h7.4c0.4 0 0.7-0.1 0.8-0.2 0.2-0.5-0.5-2-1.3-3-0.1-0.1-0.1-0.3-0.1-0.4V56.2c0-2.3 1.6-3.6 4.3-3.6 0 0 0.1 0 0.1 0V51h-3c-0.4 0-0.7-0.3-0.7-0.7v-0.5h-0.3c-0.4 0-0.7-0.3-0.7-0.7v-4.5c0-0.4 0.3-0.7 0.7-0.7h0.9c0.4 0 1 0.3 2.8 1.5 3.2 2.1 9.3 6 13.5 6H70c0.6 0 1.2 0.3 1.7 0.8 3.5 3.6 3.6 20.1 3.5 24.1h16.7c-1.3-18.4-9.7-36.6-9.8-36.8-1.8-4.4-0.8-6.8-0.2-7.7l-1.6-2.5c-0.2-0.3-0.3-0.6-0.5-0.9-0.5-0.9-1-1.9-1.7-2-0.8-0.1-1.8-0.2-3-0.2-1 0-2.1 0.1-3.2 0.1-1 0-2.1 0.1-3.1 0.1l-8.4 0c0.3 1.1 1.7 1.7 4.2 1.9 1.1 0.1 2.2 0.1 3.5 0l0.3 0c0.3 0 0.5 0 0.7 0 1.5 0 1.7 1.1 1.7 2.2 0 2-0.7 2.2-2.3 2.2H54.7c-1.6 0-2.9-0.8-4.1-2.3-0.6-0.7-0.8-1.4-0.9-2.4 0 0 0-0.8 0-1.6H38l-1 2.2c-0.1 0.2-0.3 0.4-0.6 0.4-0.3 0-0.5-0.1-0.6-0.3l-1.4-2.3-3.9 0-1 2.2c-0.1 0.2-0.3 0.4-0.5 0.4-0.2 0-0.5-0.1-0.6-0.3L27.8 28h-2.7c-2.3 0-4.5 0-6.8 0 0 0.5 0 0.9 0 1.4v0.4c0 0.4-0.3 0.7-0.7 0.7h-4.4l-1.6 1.3v1c0 0.4-0.3 0.7-0.7 0.7H8v1.2h3c0.4 0 0.7 0.3 0.7 0.7v1l1.6 1.3h4.4c0.4 0 0.7 0.3 0.7 0.7v1.3h10.7c0.4 0 0.7 0.3 0.7 0.7v9.1c0 0.4-0.3 0.7-0.7 0.7h-0.9v0.5c0 0.4-0.3 0.7-0.7 0.7h-3.4v1.5C24.3 52.5 24.5 52.5 24.6 52.5z" fill="#ff9302" data-fill-palette-color="accent"></path></g><g fill="#ff9302" data-fill-palette-color="accent"><path d="M31.9 52.1c-0.1 0-0.3 0-0.4 0-1.5-0.1-3-0.5-4.3-1.4-0.3-0.2-0.4-0.6-0.2-0.9 0.2-0.3 0.6-0.4 0.9-0.2 1.1 0.7 2.3 1.1 3.6 1.2 2.6 0.1 4.5-1.2 4.5-1.2 0.3-0.2 0.7-0.1 0.9 0.2 0.2 0.3 0.1 0.7-0.2 0.9C36.7 50.8 34.7 52.1 31.9 52.1z" fill="#ff9302" data-fill-palette-color="accent"></path></g><g fill="#ff9302" data-fill-palette-color="accent"><path d="M33.4 71.9c-0.3 0-0.6-0.2-0.6-0.5-0.1-0.4 0.1-0.7 0.5-0.8 1.1-0.3 1.9-1 1.9-1 0.3-0.2 0.7-0.2 0.9 0.1 0.2 0.3 0.2 0.7-0.1 0.9 0 0-1 0.8-2.4 1.2C33.5 71.9 33.4 71.9 33.4 71.9z" fill="#ff9302" data-fill-palette-color="accent"></path></g><g fill="#ff9302" data-fill-palette-color="accent"><path d="M74.7 73c-0.4 0-0.7-0.3-0.7-0.7 0-0.4 0.3-0.7 0.7-0.7 1.7 0 3.5-1.8 4.1-2.5 0.2-0.3 0.7-0.3 0.9-0.1 0.3 0.2 0.3 0.7 0.1 0.9C79.7 70.2 77.4 73 74.7 73z" fill="#ff9302" data-fill-palette-color="accent"></path></g><g fill="#ff9302" data-fill-palette-color="accent"><path d="M74.7 69c-0.4 0-0.7-0.3-0.7-0.7 0-0.4 0.3-0.7 0.7-0.7 1.7 0 3.5-1.8 4.1-2.5 0.2-0.3 0.7-0.3 0.9-0.1 0.3 0.2 0.3 0.7 0.1 0.9C79.7 66.2 77.4 69 74.7 69z" fill="#ff9302" data-fill-palette-color="accent"></path></g><g fill="#ff9302" data-fill-palette-color="accent"><path d="M74.4 65.5c-0.4 0-0.7-0.3-0.7-0.7 0-0.4 0.3-0.7 0.7-0.7 1.7 0 3.5-1.8 4.1-2.5 0.2-0.3 0.7-0.3 0.9-0.1 0.3 0.2 0.3 0.7 0.1 0.9C79.4 62.6 77 65.5 74.4 65.5z" fill="#ff9302" data-fill-palette-color="accent"></path></g><g fill="#ff9302" data-fill-palette-color="accent"><path d="M74 62c-0.4 0-0.7-0.3-0.7-0.7 0-0.4 0.3-0.7 0.7-0.7 2 0 4-2.5 4.1-2.5 0.2-0.3 0.7-0.3 0.9-0.1 0.3 0.2 0.3 0.7 0.1 0.9C79 59.2 76.6 62 74 62z" fill="#ff9302" data-fill-palette-color="accent"></path></g><g fill="#ff9302" data-fill-palette-color="accent"><path d="M33.4 75.4c-0.3 0-0.6-0.2-0.6-0.5-0.1-0.4 0.1-0.7 0.5-0.8 1.1-0.3 1.9-1 1.9-1 0.3-0.2 0.7-0.2 0.9 0.1 0.2 0.3 0.2 0.7-0.1 0.9 0 0-1 0.8-2.4 1.2C33.5 75.4 33.4 75.4 33.4 75.4z" fill="#ff9302" data-fill-palette-color="accent"></path></g><g fill="#ff9302" data-fill-palette-color="accent"><path d="M33.4 78.7c-0.3 0-0.6-0.2-0.6-0.5-0.1-0.4 0.1-0.7 0.5-0.8 1.1-0.3 1.9-1 1.9-1 0.3-0.2 0.7-0.2 0.9 0.1 0.2 0.3 0.2 0.7-0.1 0.9 0 0-1 0.8-2.4 1.2C33.5 78.7 33.4 78.7 33.4 78.7z" fill="#ff9302" data-fill-palette-color="accent"></path></g><g fill="#ff9302" data-fill-palette-color="accent"><path d="M52.2 42.2h-0.6c-0.7 0-1.3-0.6-1.3-1.3v-4.7c0-0.7 0.6-1.3 1.3-1.3h0.6c0.7 0 1.3 0.6 1.3 1.3v4.7C53.5 41.6 52.9 42.2 52.2 42.2zM52.2 36.2l-0.6 0 0 4.7 0.5 0V36.2z" fill="#ff9302" data-fill-palette-color="accent"></path></g><g fill="#ff9302" data-fill-palette-color="accent"><path d="M52.2 50.3h-0.6c-0.7 0-1.3-0.6-1.3-1.3v-4.7c0-0.7 0.6-1.3 1.3-1.3h0.6c0.7 0 1.3 0.6 1.3 1.3V49C53.5 49.7 52.9 50.3 52.2 50.3zM52.2 44.3l-0.6 0 0 4.7 0.5 0V44.3z" fill="#ff9302" data-fill-palette-color="accent"></path></g><g fill="#ff9302" data-fill-palette-color="accent"><path d="M85.6 77.6c-0.1 0-0.1 0-0.2 0-0.3-0.1-0.5-0.5-0.4-0.8 2.4-7.5 0.3-21.4-2.9-24.8-2.6-2.7-9.2-0.3-11.5 0.9-0.3 0.2-0.7 0-0.9-0.3-0.2-0.3 0-0.7 0.3-0.9C70.2 51.4 79.2 47 83 51c3.8 4 5.6 18.7 3.2 26.2C86.1 77.4 85.8 77.6 85.6 77.6z" fill="#ff9302" data-fill-palette-color="accent"></path></g><g fill="#ff9302" data-fill-palette-color="accent"><path d="M11.1 32.7" fill="#ff9302" data-fill-palette-color="accent"></path></g><g fill="#ff9302" data-fill-palette-color="accent"><path d="M11.1 32.7" fill="#ff9302" data-fill-palette-color="accent"></path></g><g fill="#ff9302" data-fill-palette-color="accent"><path d="M17.7 38.9c-0.4 0-0.7-0.3-0.7-0.7v-8.5c0-0.4 0.3-0.7 0.7-0.7 0.4 0 0.7 0.3 0.7 0.7v8.5C18.4 38.6 18.1 38.9 17.7 38.9z" fill="#ff9302" data-fill-palette-color="accent"></path></g><g fill="#ff9302" data-fill-palette-color="accent"><path d="M11.1 35.8c-0.4 0-0.7-0.3-0.7-0.7v-2.5c0-0.4 0.3-0.7 0.7-0.7 0.4 0 0.7 0.3 0.7 0.7v2.5C11.7 35.5 11.4 35.8 11.1 35.8z" fill="#ff9302" data-fill-palette-color="accent"></path></g><g fill="#ff9302" data-fill-palette-color="accent"><path d="M29.1 41.5" fill="#ff9302" data-fill-palette-color="accent"></path></g></g></svg></g></svg></g></svg></g></svg></g></svg></g></svg></g><defs></defs></svg><rect width="395.52" height="247.2" fill="none" stroke="none" visibility="hidden"></rect></g></svg></g></svg>