<svg width="2000" height="1247" viewBox="0 0 2000 1247" fill="none" xmlns="http://www.w3.org/2000/svg">
<g clip-path="url(#clip0_1_2)">
<g clip-path="url(#clip1_1_2)">
<g clip-path="url(#clip2_1_2)">
<g clip-path="url(#clip3_1_2)">
<path d="M881.969 -6.10352e-05V-1.50006H880.469H629.443H627.943V-6.10352e-05V299.638V301.138H629.443H880.469H881.969V299.638V-6.10352e-05ZM880.469 1249.62H881.969V1248.12V948.482V946.982H880.469H629.443H627.943V948.482V1248.12V1249.62H629.443H880.469ZM257.287 1249.62H258.787V1248.12V948.482V946.982H257.287H5.55981H4.05981V948.482V1248.12V1249.62H5.55981H257.287ZM5.55981 -1.50006H4.05981V-6.10352e-05V299.638V301.138H5.55981H257.287H258.787V299.638V-6.10352e-05V-1.50006H257.287H5.55981ZM1179.85 1248.12V1249.62H1181.35H1504.35C1656.82 1249.62 1776.62 1202.81 1863.56 1109.06L1863.57 1109.06C1905.31 1063.91 1937 1010.55 1958.63 948.979L1959.33 946.982H1957.21H1701.56H1700.65L1700.23 947.78C1695.58 956.568 1690.51 964.507 1685.03 971.596C1651.03 1015.32 1592.37 1037.37 1508.57 1037.37H1434.94V948.482V946.982H1433.44H1181.35H1179.85V948.482V1248.12ZM1181.35 -1.50006H1179.85V-6.10352e-05V299.638V301.138H1181.35H1433.44H1434.94V299.638V211.45H1525.04C1602.93 213.783 1657.75 237.906 1689.91 283.489L1689.91 283.496C1693.6 288.656 1697.08 294.272 1700.35 300.35L1700.78 301.138H1701.67H1956.33H1958.46L1957.75 299.135C1935.65 237.163 1903.32 183.448 1860.75 138.009C1773.82 44.9724 1657.31 -1.50006 1511.38 -1.50006H1181.35Z" fill="#FCE44D" stroke="black" stroke-width="3"/>
<g clip-path="url(#clip4_1_2)">
<g clip-path="url(#clip5_1_2)">
<g clip-path="url(#clip6_1_2)">
<g clip-path="url(#clip7_1_2)">
<g clip-path="url(#clip8_1_2)">
<g clip-path="url(#clip9_1_2)">
<g clip-path="url(#clip10_1_2)">
<mask id="path-2-outside-1_1_2" maskUnits="userSpaceOnUse" x="946.12" y="510.315" width="1056" height="132" fill="black">
<rect fill="white" x="946.12" y="510.315" width="1056" height="132"/>
<path d="M1037.14 513.315V638.882H1011.89V585.158H974.446V638.882H949.12V513.315H974.446V564.107H1011.89V513.315H1037.14ZM1125.69 638.882L1118.98 613.168H1084.4L1077.69 638.882H1050.85L1090.09 513.315H1113.29L1133.04 576.099L1152.78 638.882H1125.69ZM1101.64 547.294L1089.91 592.046H1113.36L1101.64 547.294ZM1252.28 513.315V638.882H1226.92L1189.87 556.513V638.882H1164.51V513.315H1189.87L1227.03 595.755V513.315H1252.28ZM1305.12 638.882H1272.63V513.315H1305.83C1320.5 513.315 1332.18 517.978 1340.87 527.302C1349.58 536.604 1354.03 549.366 1354.22 565.591V585.936C1354.22 602.442 1349.86 615.393 1341.15 624.789C1332.44 634.184 1320.43 638.882 1305.12 638.882ZM1307.21 534.437H1297.99V617.831H1305.58C1314.04 617.831 1319.98 615.605 1323.42 611.155C1326.88 606.704 1328.69 599.016 1328.86 588.09V566.262C1328.86 554.535 1327.22 546.364 1323.95 541.749C1320.68 537.11 1315.09 534.673 1307.21 534.437ZM1387.56 513.315L1406.53 569.723L1425.43 513.315H1453.01L1419.39 593.353V638.882H1393.71V593.353L1359.98 513.315H1387.56ZM1537.68 638.882H1505.18V513.315H1538.38C1553.03 513.315 1564.71 517.978 1573.42 527.302C1582.13 536.604 1586.57 549.366 1586.74 565.591V585.936C1586.74 602.442 1582.38 615.393 1573.67 624.789C1564.98 634.184 1552.98 638.882 1537.68 638.882ZM1539.76 534.437H1530.54V617.831H1538.1C1546.55 617.831 1552.51 615.605 1555.97 611.155C1559.41 606.704 1561.22 599.016 1561.41 588.09V566.262C1561.41 554.535 1559.76 546.364 1556.47 541.749C1553.19 537.11 1547.63 534.673 1539.76 534.437ZM1669.78 638.882L1663.07 613.168H1628.49L1621.74 638.882H1594.93L1634.17 513.315H1657.38L1696.87 638.882H1669.78ZM1645.72 547.294L1634 592.046H1657.45L1645.72 547.294ZM1796.37 513.315V638.882H1771.01L1733.92 556.513V638.882H1708.6V513.315H1733.92L1771.11 595.755V513.315H1796.37ZM1849.21 638.882H1816.71V513.315H1849.92C1864.56 513.315 1876.24 517.978 1884.95 527.302C1893.67 536.604 1898.11 549.366 1898.27 565.591V585.936C1898.27 602.442 1893.93 615.393 1885.24 624.789C1876.52 634.184 1864.52 638.882 1849.21 638.882ZM1851.29 534.437H1842.07V617.831H1849.63C1858.09 617.831 1864.04 615.605 1867.51 611.155C1870.94 606.704 1872.76 599.016 1872.95 588.09V566.262C1872.95 554.535 1871.3 546.364 1868 541.749C1864.73 537.11 1859.16 534.673 1851.29 534.437ZM1931.65 513.315L1950.62 569.723L1969.51 513.315H1997.1L1963.47 593.353V638.882H1937.76V593.353L1904.06 513.315H1931.65Z"/>
</mask>
<path d="M1037.14 513.315V638.882H1011.89V585.158H974.446V638.882H949.12V513.315H974.446V564.107H1011.89V513.315H1037.14ZM1125.69 638.882L1118.98 613.168H1084.4L1077.69 638.882H1050.85L1090.09 513.315H1113.29L1133.04 576.099L1152.78 638.882H1125.69ZM1101.64 547.294L1089.91 592.046H1113.36L1101.64 547.294ZM1252.28 513.315V638.882H1226.92L1189.87 556.513V638.882H1164.51V513.315H1189.87L1227.03 595.755V513.315H1252.28ZM1305.12 638.882H1272.63V513.315H1305.83C1320.5 513.315 1332.18 517.978 1340.87 527.302C1349.58 536.604 1354.03 549.366 1354.22 565.591V585.936C1354.22 602.442 1349.86 615.393 1341.15 624.789C1332.44 634.184 1320.43 638.882 1305.12 638.882ZM1307.21 534.437H1297.99V617.831H1305.58C1314.04 617.831 1319.98 615.605 1323.42 611.155C1326.88 606.704 1328.69 599.016 1328.86 588.09V566.262C1328.86 554.535 1327.22 546.364 1323.95 541.749C1320.68 537.11 1315.09 534.673 1307.21 534.437ZM1387.56 513.315L1406.53 569.723L1425.43 513.315H1453.01L1419.39 593.353V638.882H1393.71V593.353L1359.98 513.315H1387.56ZM1537.68 638.882H1505.18V513.315H1538.38C1553.03 513.315 1564.71 517.978 1573.42 527.302C1582.13 536.604 1586.57 549.366 1586.74 565.591V585.936C1586.74 602.442 1582.38 615.393 1573.67 624.789C1564.98 634.184 1552.98 638.882 1537.68 638.882ZM1539.76 534.437H1530.54V617.831H1538.1C1546.55 617.831 1552.51 615.605 1555.97 611.155C1559.41 606.704 1561.22 599.016 1561.41 588.09V566.262C1561.41 554.535 1559.76 546.364 1556.47 541.749C1553.19 537.11 1547.63 534.673 1539.76 534.437ZM1669.78 638.882L1663.07 613.168H1628.49L1621.74 638.882H1594.93L1634.17 513.315H1657.38L1696.87 638.882H1669.78ZM1645.72 547.294L1634 592.046H1657.45L1645.72 547.294ZM1796.37 513.315V638.882H1771.01L1733.92 556.513V638.882H1708.6V513.315H1733.92L1771.11 595.755V513.315H1796.37ZM1849.21 638.882H1816.71V513.315H1849.92C1864.56 513.315 1876.24 517.978 1884.95 527.302C1893.67 536.604 1898.11 549.366 1898.27 565.591V585.936C1898.27 602.442 1893.93 615.393 1885.24 624.789C1876.52 634.184 1864.52 638.882 1849.21 638.882ZM1851.29 534.437H1842.07V617.831H1849.63C1858.09 617.831 1864.04 615.605 1867.51 611.155C1870.94 606.704 1872.76 599.016 1872.95 588.09V566.262C1872.95 554.535 1871.3 546.364 1868 541.749C1864.73 537.11 1859.16 534.673 1851.29 534.437ZM1931.65 513.315L1950.62 569.723L1969.51 513.315H1997.1L1963.47 593.353V638.882H1937.76V593.353L1904.06 513.315H1931.65Z" fill="#FCE44D"/>
<path d="M1037.14 513.315V638.882H1011.89V585.158H974.446V638.882H949.12V513.315H974.446V564.107H1011.89V513.315H1037.14ZM1125.69 638.882L1118.98 613.168H1084.4L1077.69 638.882H1050.85L1090.09 513.315H1113.29L1133.04 576.099L1152.78 638.882H1125.69ZM1101.64 547.294L1089.91 592.046H1113.36L1101.64 547.294ZM1252.28 513.315V638.882H1226.92L1189.87 556.513V638.882H1164.51V513.315H1189.87L1227.03 595.755V513.315H1252.28ZM1305.12 638.882H1272.63V513.315H1305.83C1320.5 513.315 1332.18 517.978 1340.87 527.302C1349.58 536.604 1354.03 549.366 1354.22 565.591V585.936C1354.22 602.442 1349.86 615.393 1341.15 624.789C1332.44 634.184 1320.43 638.882 1305.12 638.882ZM1307.21 534.437H1297.99V617.831H1305.58C1314.04 617.831 1319.98 615.605 1323.42 611.155C1326.88 606.704 1328.69 599.016 1328.86 588.09V566.262C1328.86 554.535 1327.22 546.364 1323.95 541.749C1320.68 537.11 1315.09 534.673 1307.21 534.437ZM1387.56 513.315L1406.53 569.723L1425.43 513.315H1453.01L1419.39 593.353V638.882H1393.71V593.353L1359.98 513.315H1387.56ZM1537.68 638.882H1505.18V513.315H1538.38C1553.03 513.315 1564.71 517.978 1573.42 527.302C1582.13 536.604 1586.57 549.366 1586.74 565.591V585.936C1586.74 602.442 1582.38 615.393 1573.67 624.789C1564.98 634.184 1552.98 638.882 1537.68 638.882ZM1539.76 534.437H1530.54V617.831H1538.1C1546.55 617.831 1552.51 615.605 1555.97 611.155C1559.41 606.704 1561.22 599.016 1561.41 588.09V566.262C1561.41 554.535 1559.76 546.364 1556.47 541.749C1553.19 537.11 1547.63 534.673 1539.76 534.437ZM1669.78 638.882L1663.07 613.168H1628.49L1621.74 638.882H1594.93L1634.17 513.315H1657.38L1696.87 638.882H1669.78ZM1645.72 547.294L1634 592.046H1657.45L1645.72 547.294ZM1796.37 513.315V638.882H1771.01L1733.92 556.513V638.882H1708.6V513.315H1733.92L1771.11 595.755V513.315H1796.37ZM1849.21 638.882H1816.71V513.315H1849.92C1864.56 513.315 1876.24 517.978 1884.95 527.302C1893.67 536.604 1898.11 549.366 1898.27 565.591V585.936C1898.27 602.442 1893.93 615.393 1885.24 624.789C1876.52 634.184 1864.52 638.882 1849.21 638.882ZM1851.29 534.437H1842.07V617.831H1849.63C1858.09 617.831 1864.04 615.605 1867.51 611.155C1870.94 606.704 1872.76 599.016 1872.95 588.09V566.262C1872.95 554.535 1871.3 546.364 1868 541.749C1864.73 537.11 1859.16 534.673 1851.29 534.437ZM1931.65 513.315L1950.62 569.723L1969.51 513.315H1997.1L1963.47 593.353V638.882H1937.76V593.353L1904.06 513.315H1931.65Z" stroke="black" stroke-width="6" mask="url(#path-2-outside-1_1_2)"/>
</g>
</g>
<g clip-path="url(#clip11_1_2)">
<g clip-path="url(#clip12_1_2)">
<mask id="path-3-outside-2_1_2" maskUnits="userSpaceOnUse" x="946.026" y="653.205" width="1055" height="85" fill="black">
<rect fill="white" x="946.026" y="653.205" width="1055" height="85"/>
<path d="M989.195 719.672H983.077C981.252 716.881 979.202 714.117 976.927 711.38C974.641 708.644 972.237 706.068 969.714 703.653C967.192 701.238 964.632 699.037 962.035 697.052C959.427 695.066 956.915 693.403 954.5 692.061V719.672H949.026V663.887H954.5V689.887C956.54 688.063 958.81 685.954 961.31 683.56C963.8 681.178 966.269 678.779 968.716 676.364C971.153 673.949 973.444 671.641 975.591 669.441C977.737 667.241 979.455 665.389 980.743 663.887H987.343C985.787 665.55 983.909 667.52 981.709 669.795C979.508 672.081 977.174 674.432 974.705 676.847C972.237 679.262 969.784 681.634 967.348 683.963C964.901 686.303 962.711 688.358 960.779 690.129C962.335 691.095 964.015 692.286 965.818 693.703C967.611 695.131 969.43 696.687 971.276 698.372C973.133 700.068 974.963 701.839 976.766 703.685C978.558 705.542 980.249 707.409 981.837 709.288C983.415 711.166 984.837 712.99 986.104 714.761C987.36 716.532 988.39 718.169 989.195 719.672ZM1016.37 719.672V679.503C1017.93 679.074 1020.02 678.591 1022.65 678.054C1025.28 677.518 1028.5 677.249 1032.31 677.249C1035.48 677.249 1038.12 677.705 1040.25 678.618C1042.36 679.53 1044.05 680.829 1045.32 682.514C1046.57 684.21 1047.47 686.238 1048.01 688.599C1048.54 690.961 1048.81 693.564 1048.81 696.408V719.672H1043.58V698.098C1043.58 695.147 1043.38 692.651 1042.98 690.612C1042.58 688.573 1041.91 686.909 1040.97 685.621C1040.03 684.333 1038.79 683.405 1037.27 682.836C1035.73 682.278 1033.81 681.999 1031.5 681.999C1029.04 681.999 1026.91 682.133 1025.11 682.401C1023.31 682.669 1022.14 682.911 1021.6 683.126V719.672H1016.37ZM1117.14 698.903C1117.14 702.177 1116.67 705.155 1115.72 707.839C1114.79 710.522 1113.47 712.803 1111.78 714.681C1110.09 716.559 1108.1 718.019 1105.79 719.06C1103.48 720.112 1100.93 720.638 1098.14 720.638C1095.35 720.638 1092.8 720.112 1090.49 719.06C1088.19 718.019 1086.18 716.559 1084.49 714.681C1082.8 712.803 1081.49 710.522 1080.54 707.839C1079.61 705.155 1079.14 702.177 1079.14 698.903C1079.14 695.63 1079.61 692.651 1080.54 689.968C1081.49 687.285 1082.8 684.988 1084.49 683.077C1086.18 681.178 1088.19 679.702 1090.49 678.65C1092.8 677.609 1095.35 677.088 1098.14 677.088C1100.93 677.088 1103.48 677.609 1105.79 678.65C1108.1 679.702 1110.09 681.178 1111.78 683.077C1113.47 684.988 1114.79 687.285 1115.72 689.968C1116.67 692.651 1117.14 695.63 1117.14 698.903ZM1111.58 698.903C1111.58 693.698 1110.38 689.549 1107.96 686.458C1105.55 683.378 1102.27 681.838 1098.14 681.838C1094.01 681.838 1090.74 683.378 1088.32 686.458C1085.91 689.549 1084.7 693.698 1084.7 698.903C1084.7 704.109 1085.91 708.241 1088.32 711.3C1090.74 714.359 1094.01 715.888 1098.14 715.888C1102.27 715.888 1105.55 714.359 1107.96 711.3C1110.38 708.241 1111.58 704.109 1111.58 698.903ZM1170.24 678.054H1174.74C1175.23 680.738 1175.85 683.593 1176.63 686.619C1177.41 689.657 1178.27 692.742 1179.2 695.877C1180.15 699.021 1181.14 702.123 1182.18 705.182C1183.23 708.241 1184.3 711.112 1185.37 713.795C1186.28 711.756 1187.25 709.271 1188.27 706.341C1189.29 703.422 1190.31 700.336 1191.33 697.084C1192.35 693.843 1193.3 690.569 1194.18 687.263C1195.07 683.968 1195.81 680.898 1196.4 678.054H1201.55C1199.62 686.211 1197.51 693.671 1195.22 700.433C1192.95 707.195 1190.44 713.608 1187.7 719.672H1182.79C1181.99 717.793 1181.14 715.684 1180.25 713.345C1179.37 711.016 1178.46 708.52 1177.51 705.858C1176.58 703.207 1175.67 700.417 1174.78 697.486C1173.9 694.567 1173.05 691.578 1172.25 688.519C1171.44 691.578 1170.59 694.567 1169.7 697.486C1168.82 700.417 1167.91 703.207 1166.97 705.858C1166.03 708.52 1165.12 711.016 1164.23 713.345C1163.35 715.684 1162.51 717.793 1161.7 719.672H1156.71C1153.97 713.608 1151.46 707.195 1149.18 700.433C1146.9 693.671 1144.8 686.211 1142.87 678.054H1148.42C1149.01 680.898 1149.75 683.968 1150.63 687.263C1151.52 690.569 1152.47 693.843 1153.49 697.084C1154.51 700.336 1155.54 703.411 1156.58 706.309C1157.63 709.207 1158.62 711.676 1159.53 713.715C1160.55 711.032 1161.58 708.161 1162.62 705.102C1163.67 702.043 1164.65 698.957 1165.57 695.844C1166.48 692.732 1167.34 689.657 1168.14 686.619C1168.95 683.593 1169.65 680.738 1170.24 678.054ZM1241.04 716.049L1240.32 720.396C1238.55 720.343 1237.01 720.117 1235.7 719.72C1234.38 719.312 1233.28 718.69 1232.4 717.853C1231.51 717.026 1230.83 715.953 1230.38 714.633C1229.92 713.323 1229.69 711.676 1229.69 709.69V658.171L1234.92 657.205V709.529C1234.92 710.817 1235.05 711.847 1235.29 712.62C1235.53 713.404 1235.89 714.021 1236.37 714.472C1236.86 714.933 1237.49 715.271 1238.27 715.486C1239.05 715.701 1239.97 715.888 1241.04 716.049ZM1267.25 698.823C1267.25 695.174 1267.78 691.991 1268.83 689.276C1269.87 686.571 1271.24 684.306 1272.93 682.482C1274.62 680.657 1276.55 679.299 1278.73 678.408C1280.9 677.528 1283.14 677.088 1285.44 677.088C1290.54 677.088 1294.61 678.752 1297.65 682.079C1300.67 685.406 1302.19 690.531 1302.19 697.454C1302.19 697.884 1302.18 698.313 1302.16 698.742C1302.12 699.172 1302.08 699.574 1302.03 699.95H1272.81C1272.97 705.048 1274.23 708.966 1276.59 711.702C1278.95 714.439 1282.71 715.808 1287.86 715.808C1290.7 715.808 1292.96 715.54 1294.62 715.003C1296.28 714.466 1297.49 714.01 1298.24 713.634L1299.21 718.142C1298.46 718.572 1297.05 719.081 1294.99 719.672C1292.92 720.262 1290.49 720.557 1287.7 720.557C1284.05 720.557 1280.94 720.021 1278.36 718.947C1275.78 717.874 1273.66 716.371 1272 714.439C1270.34 712.507 1269.13 710.211 1268.38 707.549C1267.63 704.898 1267.25 701.989 1267.25 698.823ZM1272.97 695.522H1296.79C1296.69 691.175 1295.67 687.795 1293.74 685.38C1291.8 682.965 1289.07 681.757 1285.52 681.757C1283.65 681.757 1281.97 682.133 1280.5 682.884C1279.02 683.635 1277.73 684.639 1276.64 685.895C1275.53 687.161 1274.67 688.626 1274.06 690.29C1273.44 691.954 1273.07 693.698 1272.97 695.522ZM1366.41 657.205V718.384C1364.85 718.92 1362.87 719.43 1360.45 719.913C1358.04 720.396 1354.98 720.638 1351.28 720.638C1348.22 720.638 1345.44 720.139 1342.94 719.14C1340.45 718.153 1338.3 716.72 1336.5 714.842C1334.7 712.964 1333.31 710.683 1332.31 708C1331.32 705.316 1330.83 702.284 1330.83 698.903C1330.83 695.737 1331.24 692.828 1332.07 690.177C1332.91 687.515 1334.13 685.219 1335.74 683.287C1337.35 681.355 1339.32 679.852 1341.65 678.779C1343.99 677.705 1346.66 677.169 1349.67 677.169C1352.4 677.169 1354.77 677.555 1356.78 678.328C1358.8 679.111 1360.26 679.852 1361.18 680.55V658.171L1366.41 657.205ZM1361.18 714.761V685.621C1360.69 685.245 1360.09 684.843 1359.36 684.414C1358.64 683.984 1357.8 683.582 1356.83 683.206C1355.86 682.83 1354.82 682.519 1353.69 682.272C1352.56 682.036 1351.38 681.918 1350.15 681.918C1347.57 681.918 1345.41 682.374 1343.66 683.287C1341.92 684.199 1340.52 685.417 1339.44 686.941C1338.37 688.476 1337.59 690.274 1337.11 692.335C1336.63 694.406 1336.38 696.596 1336.38 698.903C1336.38 704.377 1337.75 708.574 1340.49 711.493C1343.23 714.423 1346.85 715.888 1351.36 715.888C1353.93 715.888 1356.01 715.765 1357.59 715.518C1359.18 715.282 1360.37 715.03 1361.18 714.761ZM1426.83 717.579V714.842C1426.51 715.11 1426.03 715.416 1425.38 715.76C1424.74 716.114 1423.94 716.479 1423 716.854C1422.07 717.23 1420.99 717.536 1419.78 717.772C1418.58 718.019 1417.23 718.142 1415.72 718.142C1413.31 718.142 1410.97 717.767 1408.72 717.015C1406.47 716.264 1404.49 715.083 1402.79 713.473C1401.11 711.863 1399.76 709.781 1398.74 707.227C1397.72 704.683 1397.21 701.587 1397.21 697.937C1397.21 694.986 1397.66 692.249 1398.58 689.726C1399.49 687.204 1400.79 685.015 1402.47 683.158C1404.17 681.312 1406.23 679.863 1408.67 678.811C1411.12 677.77 1413.87 677.249 1416.93 677.249C1420.79 677.249 1423.89 677.501 1426.22 678.006C1428.56 678.521 1430.48 679.02 1431.98 679.503V717.498C1431.98 723.724 1430.37 728.167 1427.15 730.829C1423.93 733.48 1419.08 734.805 1412.58 734.805C1409.9 734.805 1407.47 734.607 1405.29 734.21C1403.12 733.802 1401.26 733.33 1399.7 732.793L1400.75 728.044C1402.04 728.634 1403.79 729.144 1406.01 729.573C1408.25 730.002 1410.49 730.217 1412.74 730.217C1417.68 730.217 1421.26 729.267 1423.48 727.367C1425.72 725.457 1426.83 722.194 1426.83 717.579ZM1426.75 709.932V683.126C1425.84 682.857 1424.66 682.6 1423.21 682.353C1421.76 682.117 1419.69 681.999 1417.01 681.999C1414.76 681.999 1412.75 682.385 1411.01 683.158C1409.27 683.941 1407.78 685.041 1406.55 686.458C1405.31 687.886 1404.37 689.576 1403.73 691.53C1403.08 693.494 1402.76 695.656 1402.76 698.018C1402.76 700.755 1403.14 703.1 1403.89 705.053C1404.64 707.017 1405.62 708.617 1406.82 709.851C1408.03 711.085 1409.42 711.987 1410.97 712.556C1412.53 713.114 1414.11 713.393 1415.72 713.393C1418.08 713.393 1420.24 713.044 1422.19 712.346C1424.16 711.649 1425.68 710.844 1426.75 709.932ZM1462.78 698.823C1462.78 695.174 1463.31 691.991 1464.36 689.276C1465.4 686.571 1466.77 684.306 1468.47 682.482C1470.15 680.657 1472.08 679.299 1474.26 678.408C1476.43 677.528 1478.67 677.088 1480.97 677.088C1486.07 677.088 1490.14 678.752 1493.18 682.079C1496.2 685.406 1497.72 690.531 1497.72 697.454C1497.72 697.884 1497.71 698.313 1497.69 698.742C1497.65 699.172 1497.61 699.574 1497.56 699.95H1468.34C1468.5 705.048 1469.76 708.966 1472.12 711.702C1474.48 714.439 1478.24 715.808 1483.39 715.808C1486.23 715.808 1488.49 715.54 1490.15 715.003C1491.81 714.466 1493.02 714.01 1493.77 713.634L1494.74 718.142C1493.99 718.572 1492.58 719.081 1490.52 719.672C1488.45 720.262 1486.02 720.557 1483.23 720.557C1479.58 720.557 1476.47 720.021 1473.89 718.947C1471.31 717.874 1469.19 716.371 1467.53 714.439C1465.87 712.507 1464.66 710.211 1463.91 707.549C1463.16 704.898 1462.78 701.989 1462.78 698.823ZM1468.5 695.522H1492.32C1492.22 691.175 1491.2 687.795 1489.27 685.38C1487.33 682.965 1484.6 681.757 1481.05 681.757C1479.18 681.757 1477.5 682.133 1476.03 682.884C1474.55 683.635 1473.26 684.639 1472.17 685.895C1471.06 687.161 1470.2 688.626 1469.59 690.29C1468.97 691.954 1468.6 693.698 1468.5 695.522ZM1571.89 678.054V719.672H1566.66V678.054H1571.89ZM1573.1 665.497C1573.1 666.731 1572.72 667.708 1571.97 668.427C1571.22 669.156 1570.31 669.521 1569.23 669.521C1568.16 669.521 1567.25 669.156 1566.5 668.427C1565.74 667.708 1565.37 666.731 1565.37 665.497C1565.37 664.262 1565.74 663.28 1566.5 662.55C1567.25 661.831 1568.16 661.472 1569.23 661.472C1570.31 661.472 1571.22 661.831 1571.97 662.55C1572.72 663.28 1573.1 664.262 1573.1 665.497ZM1613.72 715.969C1616.72 715.969 1619.2 715.47 1621.15 714.472C1623.12 713.484 1624.1 711.81 1624.1 709.449C1624.1 708.322 1623.92 707.356 1623.57 706.551C1623.23 705.746 1622.65 705.021 1621.85 704.377C1621.04 703.733 1619.98 703.116 1618.66 702.526C1617.35 701.935 1615.73 701.238 1613.8 700.433C1612.24 699.789 1610.76 699.129 1609.37 698.452C1607.97 697.787 1606.74 697.009 1605.67 696.118C1604.59 695.238 1603.73 694.181 1603.09 692.946C1602.45 691.712 1602.12 690.209 1602.12 688.438C1602.12 685.058 1603.4 682.321 1605.94 680.228C1608.49 678.135 1612 677.088 1616.45 677.088C1619.3 677.088 1621.64 677.33 1623.49 677.813C1625.35 678.296 1626.65 678.725 1627.4 679.101L1626.19 683.77C1625.55 683.448 1624.46 683.018 1622.92 682.482C1621.4 681.945 1619.16 681.677 1616.21 681.677C1615.03 681.677 1613.91 681.795 1612.86 682.031C1611.82 682.278 1610.9 682.653 1610.09 683.158C1609.29 683.673 1608.64 684.317 1608.16 685.09C1607.68 685.873 1607.44 686.829 1607.44 687.956C1607.44 689.082 1607.65 690.048 1608.08 690.853C1608.51 691.658 1609.14 692.372 1609.96 692.995C1610.8 693.606 1611.82 694.181 1613.02 694.717C1614.24 695.254 1615.62 695.844 1617.18 696.488C1618.79 697.132 1620.33 697.787 1621.8 698.452C1623.28 699.129 1624.58 699.934 1625.71 700.867C1626.84 701.812 1627.75 702.939 1628.45 704.248C1629.14 705.569 1629.49 707.221 1629.49 709.207C1629.49 712.964 1628.08 715.808 1625.26 717.74C1622.45 719.672 1618.6 720.638 1613.72 720.638C1610.07 720.638 1607.28 720.332 1605.34 719.72C1603.41 719.098 1602.12 718.625 1601.48 718.303L1602.85 713.554C1603.01 713.661 1603.36 713.833 1603.9 714.069C1604.43 714.316 1605.16 714.584 1606.07 714.874C1606.98 715.175 1608.06 715.432 1609.32 715.647C1610.59 715.862 1612.05 715.969 1613.72 715.969ZM1702.12 683.126V712.185C1702.6 712.561 1703.21 712.964 1703.94 713.393C1704.66 713.822 1705.5 714.225 1706.47 714.6C1707.43 714.976 1708.48 715.282 1709.61 715.518C1710.73 715.765 1711.91 715.888 1713.15 715.888C1715.72 715.888 1717.89 715.443 1719.64 714.552C1721.37 713.672 1722.78 712.465 1723.85 710.93C1724.93 709.406 1725.7 707.608 1726.19 705.536C1726.67 703.476 1726.91 701.291 1726.91 698.984C1726.91 693.51 1725.54 689.308 1722.81 686.378C1720.07 683.458 1716.45 681.999 1711.94 681.999C1709.36 681.999 1707.29 682.117 1705.71 682.353C1704.12 682.6 1702.92 682.857 1702.12 683.126ZM1702.12 717.257V734.564H1696.89V679.503C1698.44 678.967 1700.43 678.457 1702.84 677.974C1705.26 677.491 1708.32 677.249 1712.02 677.249C1715.08 677.249 1717.86 677.743 1720.36 678.73C1722.85 679.729 1725 681.167 1726.8 683.045C1728.59 684.923 1729.99 687.204 1730.99 689.887C1731.97 692.571 1732.47 695.603 1732.47 698.984C1732.47 702.15 1732.05 705.059 1731.23 707.71C1730.39 710.372 1729.17 712.652 1727.56 714.552C1725.95 716.463 1723.98 717.954 1721.65 719.028C1719.31 720.101 1716.64 720.638 1713.63 720.638C1710.89 720.638 1708.52 720.246 1706.51 719.462C1704.5 718.69 1703.03 717.954 1702.12 717.257ZM1798.78 698.903C1798.78 702.177 1798.31 705.155 1797.36 707.839C1796.43 710.522 1795.12 712.803 1793.42 714.681C1791.73 716.559 1789.74 718.019 1787.43 719.06C1785.12 720.112 1782.57 720.638 1779.78 720.638C1776.99 720.638 1774.44 720.112 1772.14 719.06C1769.83 718.019 1767.83 716.559 1766.13 714.681C1764.45 712.803 1763.13 710.522 1762.19 707.839C1761.25 705.155 1760.79 702.177 1760.79 698.903C1760.79 695.63 1761.25 692.651 1762.19 689.968C1763.13 687.285 1764.45 684.988 1766.13 683.077C1767.83 681.178 1769.83 679.702 1772.14 678.65C1774.44 677.609 1776.99 677.088 1779.78 677.088C1782.57 677.088 1785.12 677.609 1787.43 678.65C1789.74 679.702 1791.73 681.178 1793.42 683.077C1795.12 684.988 1796.43 687.285 1797.36 689.968C1798.31 692.651 1798.78 695.63 1798.78 698.903ZM1793.23 698.903C1793.23 693.698 1792.02 689.549 1789.6 686.458C1787.19 683.378 1783.92 681.838 1779.78 681.838C1775.65 681.838 1772.38 683.378 1769.96 686.458C1767.55 689.549 1766.34 693.698 1766.34 698.903C1766.34 704.109 1767.55 708.241 1769.96 711.3C1772.38 714.359 1775.65 715.888 1779.78 715.888C1783.92 715.888 1787.19 714.359 1789.6 711.3C1792.02 708.241 1793.23 704.109 1793.23 698.903ZM1851.88 678.054H1856.39C1856.87 680.738 1857.5 683.593 1858.27 686.619C1859.05 689.657 1859.91 692.742 1860.85 695.877C1861.79 699.021 1862.78 702.123 1863.82 705.182C1864.88 708.241 1865.94 711.112 1867.01 713.795C1867.92 711.756 1868.89 709.271 1869.91 706.341C1870.93 703.422 1871.95 700.336 1872.97 697.084C1873.99 693.843 1874.94 690.569 1875.82 687.263C1876.71 683.968 1877.45 680.898 1878.04 678.054H1883.19C1881.26 686.211 1879.15 693.671 1876.86 700.433C1874.59 707.195 1872.08 713.608 1869.35 719.672H1864.44C1863.63 717.793 1862.78 715.684 1861.89 713.345C1861.01 711.016 1860.1 708.52 1859.15 705.858C1858.22 703.207 1857.31 700.417 1856.42 697.486C1855.54 694.567 1854.7 691.578 1853.89 688.519C1853.09 691.578 1852.24 694.567 1851.35 697.486C1850.47 700.417 1849.55 703.207 1848.61 705.858C1847.68 708.52 1846.76 711.016 1845.87 713.345C1844.99 715.684 1844.15 717.793 1843.34 719.672H1838.35C1835.62 713.608 1833.11 707.195 1830.82 700.433C1828.54 693.671 1826.44 686.211 1824.51 678.054H1830.06C1830.65 680.898 1831.39 683.968 1832.27 687.263C1833.16 690.569 1834.11 693.843 1835.13 697.084C1836.15 700.336 1837.18 703.411 1838.23 706.309C1839.28 709.207 1840.26 711.676 1841.17 713.715C1842.19 711.032 1843.22 708.161 1844.26 705.102C1845.31 702.043 1846.3 698.957 1847.21 695.844C1848.12 692.732 1848.98 689.657 1849.78 686.619C1850.59 683.593 1851.29 680.738 1851.88 678.054ZM1908.92 698.823C1908.92 695.174 1909.44 691.991 1910.5 689.276C1911.54 686.571 1912.91 684.306 1914.6 682.482C1916.29 680.657 1918.22 679.299 1920.4 678.408C1922.57 677.528 1924.8 677.088 1927.11 677.088C1932.21 677.088 1936.28 678.752 1939.31 682.079C1942.34 685.406 1943.85 690.531 1943.85 697.454C1943.85 697.884 1943.84 698.313 1943.82 698.742C1943.79 699.172 1943.75 699.574 1943.69 699.95H1914.47C1914.63 705.048 1915.9 708.966 1918.26 711.702C1920.62 714.439 1924.37 715.808 1929.53 715.808C1932.37 715.808 1934.62 715.54 1936.29 715.003C1937.95 714.466 1939.16 714.01 1939.91 713.634L1940.88 718.142C1940.13 718.572 1938.72 719.081 1936.66 719.672C1934.59 720.262 1932.16 720.557 1929.37 720.557C1925.72 720.557 1922.6 720.021 1920.03 718.947C1917.45 717.874 1915.33 716.371 1913.67 714.439C1912 712.507 1910.8 710.211 1910.05 707.549C1909.29 704.898 1908.92 701.989 1908.92 698.823ZM1914.63 695.522H1938.46C1938.35 691.175 1937.33 687.795 1935.4 685.38C1933.47 682.965 1930.73 681.757 1927.19 681.757C1925.31 681.757 1923.64 682.133 1922.17 682.884C1920.69 683.635 1919.4 684.639 1918.3 685.895C1917.2 687.161 1916.34 688.626 1915.73 690.29C1915.11 691.954 1914.74 693.698 1914.63 695.522ZM1989.14 677.249C1990.86 677.249 1992.49 677.383 1994.02 677.652C1995.55 677.92 1996.6 678.188 1997.19 678.457L1996.15 682.965C1995.72 682.75 1994.85 682.519 1993.54 682.272C1992.22 682.036 1990.48 681.918 1988.34 681.918C1986.08 681.918 1984.28 682.079 1982.91 682.401C1981.54 682.723 1980.64 682.991 1980.21 683.206V719.672H1974.98V679.986C1976.32 679.396 1978.17 678.789 1980.53 678.167C1982.89 677.555 1985.76 677.249 1989.14 677.249Z"/>
</mask>
<path d="M989.195 719.672H983.077C981.252 716.881 979.202 714.117 976.927 711.38C974.641 708.644 972.237 706.068 969.714 703.653C967.192 701.238 964.632 699.037 962.035 697.052C959.427 695.066 956.915 693.403 954.5 692.061V719.672H949.026V663.887H954.5V689.887C956.54 688.063 958.81 685.954 961.31 683.56C963.8 681.178 966.269 678.779 968.716 676.364C971.153 673.949 973.444 671.641 975.591 669.441C977.737 667.241 979.455 665.389 980.743 663.887H987.343C985.787 665.55 983.909 667.52 981.709 669.795C979.508 672.081 977.174 674.432 974.705 676.847C972.237 679.262 969.784 681.634 967.348 683.963C964.901 686.303 962.711 688.358 960.779 690.129C962.335 691.095 964.015 692.286 965.818 693.703C967.611 695.131 969.43 696.687 971.276 698.372C973.133 700.068 974.963 701.839 976.766 703.685C978.558 705.542 980.249 707.409 981.837 709.288C983.415 711.166 984.837 712.99 986.104 714.761C987.36 716.532 988.39 718.169 989.195 719.672ZM1016.37 719.672V679.503C1017.93 679.074 1020.02 678.591 1022.65 678.054C1025.28 677.518 1028.5 677.249 1032.31 677.249C1035.48 677.249 1038.12 677.705 1040.25 678.618C1042.36 679.53 1044.05 680.829 1045.32 682.514C1046.57 684.21 1047.47 686.238 1048.01 688.599C1048.54 690.961 1048.81 693.564 1048.81 696.408V719.672H1043.58V698.098C1043.58 695.147 1043.38 692.651 1042.98 690.612C1042.58 688.573 1041.91 686.909 1040.97 685.621C1040.03 684.333 1038.79 683.405 1037.27 682.836C1035.73 682.278 1033.81 681.999 1031.5 681.999C1029.04 681.999 1026.91 682.133 1025.11 682.401C1023.31 682.669 1022.14 682.911 1021.6 683.126V719.672H1016.37ZM1117.14 698.903C1117.14 702.177 1116.67 705.155 1115.72 707.839C1114.79 710.522 1113.47 712.803 1111.78 714.681C1110.09 716.559 1108.1 718.019 1105.79 719.06C1103.48 720.112 1100.93 720.638 1098.14 720.638C1095.35 720.638 1092.8 720.112 1090.49 719.06C1088.19 718.019 1086.18 716.559 1084.49 714.681C1082.8 712.803 1081.49 710.522 1080.54 707.839C1079.61 705.155 1079.14 702.177 1079.14 698.903C1079.14 695.63 1079.61 692.651 1080.54 689.968C1081.49 687.285 1082.8 684.988 1084.49 683.077C1086.18 681.178 1088.19 679.702 1090.49 678.65C1092.8 677.609 1095.35 677.088 1098.14 677.088C1100.93 677.088 1103.48 677.609 1105.79 678.65C1108.1 679.702 1110.09 681.178 1111.78 683.077C1113.47 684.988 1114.79 687.285 1115.72 689.968C1116.67 692.651 1117.14 695.63 1117.14 698.903ZM1111.58 698.903C1111.58 693.698 1110.38 689.549 1107.96 686.458C1105.55 683.378 1102.27 681.838 1098.14 681.838C1094.01 681.838 1090.74 683.378 1088.32 686.458C1085.91 689.549 1084.7 693.698 1084.7 698.903C1084.7 704.109 1085.91 708.241 1088.32 711.3C1090.74 714.359 1094.01 715.888 1098.14 715.888C1102.27 715.888 1105.55 714.359 1107.96 711.3C1110.38 708.241 1111.58 704.109 1111.58 698.903ZM1170.24 678.054H1174.74C1175.23 680.738 1175.85 683.593 1176.63 686.619C1177.41 689.657 1178.27 692.742 1179.2 695.877C1180.15 699.021 1181.14 702.123 1182.18 705.182C1183.23 708.241 1184.3 711.112 1185.37 713.795C1186.28 711.756 1187.25 709.271 1188.27 706.341C1189.29 703.422 1190.31 700.336 1191.33 697.084C1192.35 693.843 1193.3 690.569 1194.18 687.263C1195.07 683.968 1195.81 680.898 1196.4 678.054H1201.55C1199.62 686.211 1197.51 693.671 1195.22 700.433C1192.95 707.195 1190.44 713.608 1187.7 719.672H1182.79C1181.99 717.793 1181.14 715.684 1180.25 713.345C1179.37 711.016 1178.46 708.52 1177.51 705.858C1176.58 703.207 1175.67 700.417 1174.78 697.486C1173.9 694.567 1173.05 691.578 1172.25 688.519C1171.44 691.578 1170.59 694.567 1169.7 697.486C1168.82 700.417 1167.91 703.207 1166.97 705.858C1166.03 708.52 1165.12 711.016 1164.23 713.345C1163.35 715.684 1162.51 717.793 1161.7 719.672H1156.71C1153.97 713.608 1151.46 707.195 1149.18 700.433C1146.9 693.671 1144.8 686.211 1142.87 678.054H1148.42C1149.01 680.898 1149.75 683.968 1150.63 687.263C1151.52 690.569 1152.47 693.843 1153.49 697.084C1154.51 700.336 1155.54 703.411 1156.58 706.309C1157.63 709.207 1158.62 711.676 1159.53 713.715C1160.55 711.032 1161.58 708.161 1162.62 705.102C1163.67 702.043 1164.65 698.957 1165.57 695.844C1166.48 692.732 1167.34 689.657 1168.14 686.619C1168.95 683.593 1169.65 680.738 1170.24 678.054ZM1241.04 716.049L1240.32 720.396C1238.55 720.343 1237.01 720.117 1235.7 719.72C1234.38 719.312 1233.28 718.69 1232.4 717.853C1231.51 717.026 1230.83 715.953 1230.38 714.633C1229.92 713.323 1229.69 711.676 1229.69 709.69V658.171L1234.92 657.205V709.529C1234.92 710.817 1235.05 711.847 1235.29 712.62C1235.53 713.404 1235.89 714.021 1236.37 714.472C1236.86 714.933 1237.49 715.271 1238.27 715.486C1239.05 715.701 1239.97 715.888 1241.04 716.049ZM1267.25 698.823C1267.25 695.174 1267.78 691.991 1268.83 689.276C1269.87 686.571 1271.24 684.306 1272.93 682.482C1274.62 680.657 1276.55 679.299 1278.73 678.408C1280.9 677.528 1283.14 677.088 1285.44 677.088C1290.54 677.088 1294.61 678.752 1297.65 682.079C1300.67 685.406 1302.19 690.531 1302.19 697.454C1302.19 697.884 1302.18 698.313 1302.16 698.742C1302.12 699.172 1302.08 699.574 1302.03 699.95H1272.81C1272.97 705.048 1274.23 708.966 1276.59 711.702C1278.95 714.439 1282.71 715.808 1287.86 715.808C1290.7 715.808 1292.96 715.54 1294.62 715.003C1296.28 714.466 1297.49 714.01 1298.24 713.634L1299.21 718.142C1298.46 718.572 1297.05 719.081 1294.99 719.672C1292.92 720.262 1290.49 720.557 1287.7 720.557C1284.05 720.557 1280.94 720.021 1278.36 718.947C1275.78 717.874 1273.66 716.371 1272 714.439C1270.34 712.507 1269.13 710.211 1268.38 707.549C1267.63 704.898 1267.25 701.989 1267.25 698.823ZM1272.97 695.522H1296.79C1296.69 691.175 1295.67 687.795 1293.74 685.38C1291.8 682.965 1289.07 681.757 1285.52 681.757C1283.65 681.757 1281.97 682.133 1280.5 682.884C1279.02 683.635 1277.73 684.639 1276.64 685.895C1275.53 687.161 1274.67 688.626 1274.06 690.29C1273.44 691.954 1273.07 693.698 1272.97 695.522ZM1366.41 657.205V718.384C1364.85 718.92 1362.87 719.43 1360.45 719.913C1358.04 720.396 1354.98 720.638 1351.28 720.638C1348.22 720.638 1345.44 720.139 1342.94 719.14C1340.45 718.153 1338.3 716.72 1336.5 714.842C1334.7 712.964 1333.31 710.683 1332.31 708C1331.32 705.316 1330.83 702.284 1330.83 698.903C1330.83 695.737 1331.24 692.828 1332.07 690.177C1332.91 687.515 1334.13 685.219 1335.74 683.287C1337.35 681.355 1339.32 679.852 1341.65 678.779C1343.99 677.705 1346.66 677.169 1349.67 677.169C1352.4 677.169 1354.77 677.555 1356.78 678.328C1358.8 679.111 1360.26 679.852 1361.18 680.55V658.171L1366.41 657.205ZM1361.18 714.761V685.621C1360.69 685.245 1360.09 684.843 1359.36 684.414C1358.64 683.984 1357.8 683.582 1356.83 683.206C1355.86 682.83 1354.82 682.519 1353.69 682.272C1352.56 682.036 1351.38 681.918 1350.15 681.918C1347.57 681.918 1345.41 682.374 1343.66 683.287C1341.92 684.199 1340.52 685.417 1339.44 686.941C1338.37 688.476 1337.59 690.274 1337.11 692.335C1336.63 694.406 1336.38 696.596 1336.38 698.903C1336.38 704.377 1337.75 708.574 1340.49 711.493C1343.23 714.423 1346.85 715.888 1351.36 715.888C1353.93 715.888 1356.01 715.765 1357.59 715.518C1359.18 715.282 1360.37 715.03 1361.18 714.761ZM1426.83 717.579V714.842C1426.51 715.11 1426.03 715.416 1425.38 715.76C1424.74 716.114 1423.94 716.479 1423 716.854C1422.07 717.23 1420.99 717.536 1419.78 717.772C1418.58 718.019 1417.23 718.142 1415.72 718.142C1413.31 718.142 1410.97 717.767 1408.72 717.015C1406.47 716.264 1404.49 715.083 1402.79 713.473C1401.11 711.863 1399.76 709.781 1398.74 707.227C1397.72 704.683 1397.21 701.587 1397.21 697.937C1397.21 694.986 1397.66 692.249 1398.58 689.726C1399.49 687.204 1400.79 685.015 1402.47 683.158C1404.17 681.312 1406.23 679.863 1408.67 678.811C1411.12 677.77 1413.87 677.249 1416.93 677.249C1420.79 677.249 1423.89 677.501 1426.22 678.006C1428.56 678.521 1430.48 679.02 1431.98 679.503V717.498C1431.98 723.724 1430.37 728.167 1427.15 730.829C1423.93 733.48 1419.08 734.805 1412.58 734.805C1409.9 734.805 1407.47 734.607 1405.29 734.21C1403.12 733.802 1401.26 733.33 1399.7 732.793L1400.75 728.044C1402.04 728.634 1403.79 729.144 1406.01 729.573C1408.25 730.002 1410.49 730.217 1412.74 730.217C1417.68 730.217 1421.26 729.267 1423.48 727.367C1425.72 725.457 1426.83 722.194 1426.83 717.579ZM1426.75 709.932V683.126C1425.84 682.857 1424.66 682.6 1423.21 682.353C1421.76 682.117 1419.69 681.999 1417.01 681.999C1414.76 681.999 1412.75 682.385 1411.01 683.158C1409.27 683.941 1407.78 685.041 1406.55 686.458C1405.31 687.886 1404.37 689.576 1403.73 691.53C1403.08 693.494 1402.76 695.656 1402.76 698.018C1402.76 700.755 1403.14 703.1 1403.89 705.053C1404.64 707.017 1405.62 708.617 1406.82 709.851C1408.03 711.085 1409.42 711.987 1410.97 712.556C1412.53 713.114 1414.11 713.393 1415.72 713.393C1418.08 713.393 1420.24 713.044 1422.19 712.346C1424.16 711.649 1425.68 710.844 1426.75 709.932ZM1462.78 698.823C1462.78 695.174 1463.31 691.991 1464.36 689.276C1465.4 686.571 1466.77 684.306 1468.47 682.482C1470.15 680.657 1472.08 679.299 1474.26 678.408C1476.43 677.528 1478.67 677.088 1480.97 677.088C1486.07 677.088 1490.14 678.752 1493.18 682.079C1496.2 685.406 1497.72 690.531 1497.72 697.454C1497.72 697.884 1497.71 698.313 1497.69 698.742C1497.65 699.172 1497.61 699.574 1497.56 699.95H1468.34C1468.5 705.048 1469.76 708.966 1472.12 711.702C1474.48 714.439 1478.24 715.808 1483.39 715.808C1486.23 715.808 1488.49 715.54 1490.15 715.003C1491.81 714.466 1493.02 714.01 1493.77 713.634L1494.74 718.142C1493.99 718.572 1492.58 719.081 1490.52 719.672C1488.45 720.262 1486.02 720.557 1483.23 720.557C1479.58 720.557 1476.47 720.021 1473.89 718.947C1471.31 717.874 1469.19 716.371 1467.53 714.439C1465.87 712.507 1464.66 710.211 1463.91 707.549C1463.16 704.898 1462.78 701.989 1462.78 698.823ZM1468.5 695.522H1492.32C1492.22 691.175 1491.2 687.795 1489.27 685.38C1487.33 682.965 1484.6 681.757 1481.05 681.757C1479.18 681.757 1477.5 682.133 1476.03 682.884C1474.55 683.635 1473.26 684.639 1472.17 685.895C1471.06 687.161 1470.2 688.626 1469.59 690.29C1468.97 691.954 1468.6 693.698 1468.5 695.522ZM1571.89 678.054V719.672H1566.66V678.054H1571.89ZM1573.1 665.497C1573.1 666.731 1572.72 667.708 1571.97 668.427C1571.22 669.156 1570.31 669.521 1569.23 669.521C1568.16 669.521 1567.25 669.156 1566.5 668.427C1565.74 667.708 1565.37 666.731 1565.37 665.497C1565.37 664.262 1565.74 663.28 1566.5 662.55C1567.25 661.831 1568.16 661.472 1569.23 661.472C1570.31 661.472 1571.22 661.831 1571.97 662.55C1572.72 663.28 1573.1 664.262 1573.1 665.497ZM1613.72 715.969C1616.72 715.969 1619.2 715.47 1621.15 714.472C1623.12 713.484 1624.1 711.81 1624.1 709.449C1624.1 708.322 1623.92 707.356 1623.57 706.551C1623.23 705.746 1622.65 705.021 1621.85 704.377C1621.04 703.733 1619.98 703.116 1618.66 702.526C1617.35 701.935 1615.73 701.238 1613.8 700.433C1612.24 699.789 1610.76 699.129 1609.37 698.452C1607.97 697.787 1606.74 697.009 1605.67 696.118C1604.59 695.238 1603.73 694.181 1603.09 692.946C1602.45 691.712 1602.12 690.209 1602.12 688.438C1602.12 685.058 1603.4 682.321 1605.94 680.228C1608.49 678.135 1612 677.088 1616.45 677.088C1619.3 677.088 1621.64 677.33 1623.49 677.813C1625.35 678.296 1626.65 678.725 1627.4 679.101L1626.19 683.77C1625.55 683.448 1624.46 683.018 1622.92 682.482C1621.4 681.945 1619.16 681.677 1616.21 681.677C1615.03 681.677 1613.91 681.795 1612.86 682.031C1611.82 682.278 1610.9 682.653 1610.09 683.158C1609.29 683.673 1608.64 684.317 1608.16 685.09C1607.68 685.873 1607.44 686.829 1607.44 687.956C1607.44 689.082 1607.65 690.048 1608.08 690.853C1608.51 691.658 1609.14 692.372 1609.96 692.995C1610.8 693.606 1611.82 694.181 1613.02 694.717C1614.24 695.254 1615.62 695.844 1617.18 696.488C1618.79 697.132 1620.33 697.787 1621.8 698.452C1623.28 699.129 1624.58 699.934 1625.71 700.867C1626.84 701.812 1627.75 702.939 1628.45 704.248C1629.14 705.569 1629.49 707.221 1629.49 709.207C1629.49 712.964 1628.08 715.808 1625.26 717.74C1622.45 719.672 1618.6 720.638 1613.72 720.638C1610.07 720.638 1607.28 720.332 1605.34 719.72C1603.41 719.098 1602.12 718.625 1601.48 718.303L1602.85 713.554C1603.01 713.661 1603.36 713.833 1603.9 714.069C1604.43 714.316 1605.16 714.584 1606.07 714.874C1606.98 715.175 1608.06 715.432 1609.32 715.647C1610.59 715.862 1612.05 715.969 1613.72 715.969ZM1702.12 683.126V712.185C1702.6 712.561 1703.21 712.964 1703.94 713.393C1704.66 713.822 1705.5 714.225 1706.47 714.6C1707.43 714.976 1708.48 715.282 1709.61 715.518C1710.73 715.765 1711.91 715.888 1713.15 715.888C1715.72 715.888 1717.89 715.443 1719.64 714.552C1721.37 713.672 1722.78 712.465 1723.85 710.93C1724.93 709.406 1725.7 707.608 1726.19 705.536C1726.67 703.476 1726.91 701.291 1726.91 698.984C1726.91 693.51 1725.54 689.308 1722.81 686.378C1720.07 683.458 1716.45 681.999 1711.94 681.999C1709.36 681.999 1707.29 682.117 1705.71 682.353C1704.12 682.6 1702.92 682.857 1702.12 683.126ZM1702.12 717.257V734.564H1696.89V679.503C1698.44 678.967 1700.43 678.457 1702.84 677.974C1705.26 677.491 1708.32 677.249 1712.02 677.249C1715.08 677.249 1717.86 677.743 1720.36 678.73C1722.85 679.729 1725 681.167 1726.8 683.045C1728.59 684.923 1729.99 687.204 1730.99 689.887C1731.97 692.571 1732.47 695.603 1732.47 698.984C1732.47 702.15 1732.05 705.059 1731.23 707.71C1730.39 710.372 1729.17 712.652 1727.56 714.552C1725.95 716.463 1723.98 717.954 1721.65 719.028C1719.31 720.101 1716.64 720.638 1713.63 720.638C1710.89 720.638 1708.52 720.246 1706.51 719.462C1704.5 718.69 1703.03 717.954 1702.12 717.257ZM1798.78 698.903C1798.78 702.177 1798.31 705.155 1797.36 707.839C1796.43 710.522 1795.12 712.803 1793.42 714.681C1791.73 716.559 1789.74 718.019 1787.43 719.06C1785.12 720.112 1782.57 720.638 1779.78 720.638C1776.99 720.638 1774.44 720.112 1772.14 719.06C1769.83 718.019 1767.83 716.559 1766.13 714.681C1764.45 712.803 1763.13 710.522 1762.19 707.839C1761.25 705.155 1760.79 702.177 1760.79 698.903C1760.79 695.63 1761.25 692.651 1762.19 689.968C1763.13 687.285 1764.45 684.988 1766.13 683.077C1767.83 681.178 1769.83 679.702 1772.14 678.65C1774.44 677.609 1776.99 677.088 1779.78 677.088C1782.57 677.088 1785.12 677.609 1787.43 678.65C1789.74 679.702 1791.73 681.178 1793.42 683.077C1795.12 684.988 1796.43 687.285 1797.36 689.968C1798.31 692.651 1798.78 695.63 1798.78 698.903ZM1793.23 698.903C1793.23 693.698 1792.02 689.549 1789.6 686.458C1787.19 683.378 1783.92 681.838 1779.78 681.838C1775.65 681.838 1772.38 683.378 1769.96 686.458C1767.55 689.549 1766.34 693.698 1766.34 698.903C1766.34 704.109 1767.55 708.241 1769.96 711.3C1772.38 714.359 1775.65 715.888 1779.78 715.888C1783.92 715.888 1787.19 714.359 1789.6 711.3C1792.02 708.241 1793.23 704.109 1793.23 698.903ZM1851.88 678.054H1856.39C1856.87 680.738 1857.5 683.593 1858.27 686.619C1859.05 689.657 1859.91 692.742 1860.85 695.877C1861.79 699.021 1862.78 702.123 1863.82 705.182C1864.88 708.241 1865.94 711.112 1867.01 713.795C1867.92 711.756 1868.89 709.271 1869.91 706.341C1870.93 703.422 1871.95 700.336 1872.97 697.084C1873.99 693.843 1874.94 690.569 1875.82 687.263C1876.71 683.968 1877.45 680.898 1878.04 678.054H1883.19C1881.26 686.211 1879.15 693.671 1876.86 700.433C1874.59 707.195 1872.08 713.608 1869.35 719.672H1864.44C1863.63 717.793 1862.78 715.684 1861.89 713.345C1861.01 711.016 1860.1 708.52 1859.15 705.858C1858.22 703.207 1857.31 700.417 1856.42 697.486C1855.54 694.567 1854.7 691.578 1853.89 688.519C1853.09 691.578 1852.24 694.567 1851.35 697.486C1850.47 700.417 1849.55 703.207 1848.61 705.858C1847.68 708.52 1846.76 711.016 1845.87 713.345C1844.99 715.684 1844.15 717.793 1843.34 719.672H1838.35C1835.62 713.608 1833.11 707.195 1830.82 700.433C1828.54 693.671 1826.44 686.211 1824.51 678.054H1830.06C1830.65 680.898 1831.39 683.968 1832.27 687.263C1833.16 690.569 1834.11 693.843 1835.13 697.084C1836.15 700.336 1837.18 703.411 1838.23 706.309C1839.28 709.207 1840.26 711.676 1841.17 713.715C1842.19 711.032 1843.22 708.161 1844.26 705.102C1845.31 702.043 1846.3 698.957 1847.21 695.844C1848.12 692.732 1848.98 689.657 1849.78 686.619C1850.59 683.593 1851.29 680.738 1851.88 678.054ZM1908.92 698.823C1908.92 695.174 1909.44 691.991 1910.5 689.276C1911.54 686.571 1912.91 684.306 1914.6 682.482C1916.29 680.657 1918.22 679.299 1920.4 678.408C1922.57 677.528 1924.8 677.088 1927.11 677.088C1932.21 677.088 1936.28 678.752 1939.31 682.079C1942.34 685.406 1943.85 690.531 1943.85 697.454C1943.85 697.884 1943.84 698.313 1943.82 698.742C1943.79 699.172 1943.75 699.574 1943.69 699.95H1914.47C1914.63 705.048 1915.9 708.966 1918.26 711.702C1920.62 714.439 1924.37 715.808 1929.53 715.808C1932.37 715.808 1934.62 715.54 1936.29 715.003C1937.95 714.466 1939.16 714.01 1939.91 713.634L1940.88 718.142C1940.13 718.572 1938.72 719.081 1936.66 719.672C1934.59 720.262 1932.16 720.557 1929.37 720.557C1925.72 720.557 1922.6 720.021 1920.03 718.947C1917.45 717.874 1915.33 716.371 1913.67 714.439C1912 712.507 1910.8 710.211 1910.05 707.549C1909.29 704.898 1908.92 701.989 1908.92 698.823ZM1914.63 695.522H1938.46C1938.35 691.175 1937.33 687.795 1935.4 685.38C1933.47 682.965 1930.73 681.757 1927.19 681.757C1925.31 681.757 1923.64 682.133 1922.17 682.884C1920.69 683.635 1919.4 684.639 1918.3 685.895C1917.2 687.161 1916.34 688.626 1915.73 690.29C1915.11 691.954 1914.74 693.698 1914.63 695.522ZM1989.14 677.249C1990.86 677.249 1992.49 677.383 1994.02 677.652C1995.55 677.92 1996.6 678.188 1997.19 678.457L1996.15 682.965C1995.72 682.75 1994.85 682.519 1993.54 682.272C1992.22 682.036 1990.48 681.918 1988.34 681.918C1986.08 681.918 1984.28 682.079 1982.91 682.401C1981.54 682.723 1980.64 682.991 1980.21 683.206V719.672H1974.98V679.986C1976.32 679.396 1978.17 678.789 1980.53 678.167C1982.89 677.555 1985.76 677.249 1989.14 677.249Z" fill="#F3A83C"/>
<path d="M989.195 719.672H983.077C981.252 716.881 979.202 714.117 976.927 711.38C974.641 708.644 972.237 706.068 969.714 703.653C967.192 701.238 964.632 699.037 962.035 697.052C959.427 695.066 956.915 693.403 954.5 692.061V719.672H949.026V663.887H954.5V689.887C956.54 688.063 958.81 685.954 961.31 683.56C963.8 681.178 966.269 678.779 968.716 676.364C971.153 673.949 973.444 671.641 975.591 669.441C977.737 667.241 979.455 665.389 980.743 663.887H987.343C985.787 665.55 983.909 667.52 981.709 669.795C979.508 672.081 977.174 674.432 974.705 676.847C972.237 679.262 969.784 681.634 967.348 683.963C964.901 686.303 962.711 688.358 960.779 690.129C962.335 691.095 964.015 692.286 965.818 693.703C967.611 695.131 969.43 696.687 971.276 698.372C973.133 700.068 974.963 701.839 976.766 703.685C978.558 705.542 980.249 707.409 981.837 709.288C983.415 711.166 984.837 712.99 986.104 714.761C987.36 716.532 988.39 718.169 989.195 719.672ZM1016.37 719.672V679.503C1017.93 679.074 1020.02 678.591 1022.65 678.054C1025.28 677.518 1028.5 677.249 1032.31 677.249C1035.48 677.249 1038.12 677.705 1040.25 678.618C1042.36 679.53 1044.05 680.829 1045.32 682.514C1046.57 684.21 1047.47 686.238 1048.01 688.599C1048.54 690.961 1048.81 693.564 1048.81 696.408V719.672H1043.58V698.098C1043.58 695.147 1043.38 692.651 1042.98 690.612C1042.58 688.573 1041.91 686.909 1040.97 685.621C1040.03 684.333 1038.79 683.405 1037.27 682.836C1035.73 682.278 1033.81 681.999 1031.5 681.999C1029.04 681.999 1026.91 682.133 1025.11 682.401C1023.31 682.669 1022.14 682.911 1021.6 683.126V719.672H1016.37ZM1117.14 698.903C1117.14 702.177 1116.67 705.155 1115.72 707.839C1114.79 710.522 1113.47 712.803 1111.78 714.681C1110.09 716.559 1108.1 718.019 1105.79 719.06C1103.48 720.112 1100.93 720.638 1098.14 720.638C1095.35 720.638 1092.8 720.112 1090.49 719.06C1088.19 718.019 1086.18 716.559 1084.49 714.681C1082.8 712.803 1081.49 710.522 1080.54 707.839C1079.61 705.155 1079.14 702.177 1079.14 698.903C1079.14 695.63 1079.61 692.651 1080.54 689.968C1081.49 687.285 1082.8 684.988 1084.49 683.077C1086.18 681.178 1088.19 679.702 1090.49 678.65C1092.8 677.609 1095.35 677.088 1098.14 677.088C1100.93 677.088 1103.48 677.609 1105.79 678.65C1108.1 679.702 1110.09 681.178 1111.78 683.077C1113.47 684.988 1114.79 687.285 1115.72 689.968C1116.67 692.651 1117.14 695.63 1117.14 698.903ZM1111.58 698.903C1111.58 693.698 1110.38 689.549 1107.96 686.458C1105.55 683.378 1102.27 681.838 1098.14 681.838C1094.01 681.838 1090.74 683.378 1088.32 686.458C1085.91 689.549 1084.7 693.698 1084.7 698.903C1084.7 704.109 1085.91 708.241 1088.32 711.3C1090.74 714.359 1094.01 715.888 1098.14 715.888C1102.27 715.888 1105.55 714.359 1107.96 711.3C1110.38 708.241 1111.58 704.109 1111.58 698.903ZM1170.24 678.054H1174.74C1175.23 680.738 1175.85 683.593 1176.63 686.619C1177.41 689.657 1178.27 692.742 1179.2 695.877C1180.15 699.021 1181.14 702.123 1182.18 705.182C1183.23 708.241 1184.3 711.112 1185.37 713.795C1186.28 711.756 1187.25 709.271 1188.27 706.341C1189.29 703.422 1190.31 700.336 1191.33 697.084C1192.35 693.843 1193.3 690.569 1194.18 687.263C1195.07 683.968 1195.81 680.898 1196.4 678.054H1201.55C1199.62 686.211 1197.51 693.671 1195.22 700.433C1192.95 707.195 1190.44 713.608 1187.7 719.672H1182.79C1181.99 717.793 1181.14 715.684 1180.25 713.345C1179.37 711.016 1178.46 708.52 1177.51 705.858C1176.58 703.207 1175.67 700.417 1174.78 697.486C1173.9 694.567 1173.05 691.578 1172.25 688.519C1171.44 691.578 1170.59 694.567 1169.7 697.486C1168.82 700.417 1167.91 703.207 1166.97 705.858C1166.03 708.52 1165.12 711.016 1164.23 713.345C1163.35 715.684 1162.51 717.793 1161.7 719.672H1156.71C1153.97 713.608 1151.46 707.195 1149.18 700.433C1146.9 693.671 1144.8 686.211 1142.87 678.054H1148.42C1149.01 680.898 1149.75 683.968 1150.63 687.263C1151.52 690.569 1152.47 693.843 1153.49 697.084C1154.51 700.336 1155.54 703.411 1156.58 706.309C1157.63 709.207 1158.62 711.676 1159.53 713.715C1160.55 711.032 1161.58 708.161 1162.62 705.102C1163.67 702.043 1164.65 698.957 1165.57 695.844C1166.48 692.732 1167.34 689.657 1168.14 686.619C1168.95 683.593 1169.65 680.738 1170.24 678.054ZM1241.04 716.049L1240.32 720.396C1238.55 720.343 1237.01 720.117 1235.7 719.72C1234.38 719.312 1233.28 718.69 1232.4 717.853C1231.51 717.026 1230.83 715.953 1230.38 714.633C1229.92 713.323 1229.69 711.676 1229.69 709.69V658.171L1234.92 657.205V709.529C1234.92 710.817 1235.05 711.847 1235.29 712.62C1235.53 713.404 1235.89 714.021 1236.37 714.472C1236.86 714.933 1237.49 715.271 1238.27 715.486C1239.05 715.701 1239.97 715.888 1241.04 716.049ZM1267.25 698.823C1267.25 695.174 1267.78 691.991 1268.83 689.276C1269.87 686.571 1271.24 684.306 1272.93 682.482C1274.62 680.657 1276.55 679.299 1278.73 678.408C1280.9 677.528 1283.14 677.088 1285.44 677.088C1290.54 677.088 1294.61 678.752 1297.65 682.079C1300.67 685.406 1302.19 690.531 1302.19 697.454C1302.19 697.884 1302.18 698.313 1302.16 698.742C1302.12 699.172 1302.08 699.574 1302.03 699.95H1272.81C1272.97 705.048 1274.23 708.966 1276.59 711.702C1278.95 714.439 1282.71 715.808 1287.86 715.808C1290.7 715.808 1292.96 715.54 1294.62 715.003C1296.28 714.466 1297.49 714.01 1298.24 713.634L1299.21 718.142C1298.46 718.572 1297.05 719.081 1294.99 719.672C1292.92 720.262 1290.49 720.557 1287.7 720.557C1284.05 720.557 1280.94 720.021 1278.36 718.947C1275.78 717.874 1273.66 716.371 1272 714.439C1270.34 712.507 1269.13 710.211 1268.38 707.549C1267.63 704.898 1267.25 701.989 1267.25 698.823ZM1272.97 695.522H1296.79C1296.69 691.175 1295.67 687.795 1293.74 685.38C1291.8 682.965 1289.07 681.757 1285.52 681.757C1283.65 681.757 1281.97 682.133 1280.5 682.884C1279.02 683.635 1277.73 684.639 1276.64 685.895C1275.53 687.161 1274.67 688.626 1274.06 690.29C1273.44 691.954 1273.07 693.698 1272.97 695.522ZM1366.41 657.205V718.384C1364.85 718.92 1362.87 719.43 1360.45 719.913C1358.04 720.396 1354.98 720.638 1351.28 720.638C1348.22 720.638 1345.44 720.139 1342.94 719.14C1340.45 718.153 1338.3 716.72 1336.5 714.842C1334.7 712.964 1333.31 710.683 1332.31 708C1331.32 705.316 1330.83 702.284 1330.83 698.903C1330.83 695.737 1331.24 692.828 1332.07 690.177C1332.91 687.515 1334.13 685.219 1335.74 683.287C1337.35 681.355 1339.32 679.852 1341.65 678.779C1343.99 677.705 1346.66 677.169 1349.67 677.169C1352.4 677.169 1354.77 677.555 1356.78 678.328C1358.8 679.111 1360.26 679.852 1361.18 680.55V658.171L1366.41 657.205ZM1361.18 714.761V685.621C1360.69 685.245 1360.09 684.843 1359.36 684.414C1358.64 683.984 1357.8 683.582 1356.83 683.206C1355.86 682.83 1354.82 682.519 1353.69 682.272C1352.56 682.036 1351.38 681.918 1350.15 681.918C1347.57 681.918 1345.41 682.374 1343.66 683.287C1341.92 684.199 1340.52 685.417 1339.44 686.941C1338.37 688.476 1337.59 690.274 1337.11 692.335C1336.63 694.406 1336.38 696.596 1336.38 698.903C1336.38 704.377 1337.75 708.574 1340.49 711.493C1343.23 714.423 1346.85 715.888 1351.36 715.888C1353.93 715.888 1356.01 715.765 1357.59 715.518C1359.18 715.282 1360.37 715.03 1361.18 714.761ZM1426.83 717.579V714.842C1426.51 715.11 1426.03 715.416 1425.38 715.76C1424.74 716.114 1423.94 716.479 1423 716.854C1422.07 717.23 1420.99 717.536 1419.78 717.772C1418.58 718.019 1417.23 718.142 1415.72 718.142C1413.31 718.142 1410.97 717.767 1408.72 717.015C1406.47 716.264 1404.49 715.083 1402.79 713.473C1401.11 711.863 1399.76 709.781 1398.74 707.227C1397.72 704.683 1397.21 701.587 1397.21 697.937C1397.21 694.986 1397.66 692.249 1398.58 689.726C1399.49 687.204 1400.79 685.015 1402.47 683.158C1404.17 681.312 1406.23 679.863 1408.67 678.811C1411.12 677.77 1413.87 677.249 1416.93 677.249C1420.79 677.249 1423.89 677.501 1426.22 678.006C1428.56 678.521 1430.48 679.02 1431.98 679.503V717.498C1431.98 723.724 1430.37 728.167 1427.15 730.829C1423.93 733.48 1419.08 734.805 1412.58 734.805C1409.9 734.805 1407.47 734.607 1405.29 734.21C1403.12 733.802 1401.26 733.33 1399.7 732.793L1400.75 728.044C1402.04 728.634 1403.79 729.144 1406.01 729.573C1408.25 730.002 1410.49 730.217 1412.74 730.217C1417.68 730.217 1421.26 729.267 1423.48 727.367C1425.72 725.457 1426.83 722.194 1426.83 717.579ZM1426.75 709.932V683.126C1425.84 682.857 1424.66 682.6 1423.21 682.353C1421.76 682.117 1419.69 681.999 1417.01 681.999C1414.76 681.999 1412.75 682.385 1411.01 683.158C1409.27 683.941 1407.78 685.041 1406.55 686.458C1405.31 687.886 1404.37 689.576 1403.73 691.53C1403.08 693.494 1402.76 695.656 1402.76 698.018C1402.76 700.755 1403.14 703.1 1403.89 705.053C1404.64 707.017 1405.62 708.617 1406.82 709.851C1408.03 711.085 1409.42 711.987 1410.97 712.556C1412.53 713.114 1414.11 713.393 1415.72 713.393C1418.08 713.393 1420.24 713.044 1422.19 712.346C1424.16 711.649 1425.68 710.844 1426.75 709.932ZM1462.78 698.823C1462.78 695.174 1463.31 691.991 1464.36 689.276C1465.4 686.571 1466.77 684.306 1468.47 682.482C1470.15 680.657 1472.08 679.299 1474.26 678.408C1476.43 677.528 1478.67 677.088 1480.97 677.088C1486.07 677.088 1490.14 678.752 1493.18 682.079C1496.2 685.406 1497.72 690.531 1497.72 697.454C1497.72 697.884 1497.71 698.313 1497.69 698.742C1497.65 699.172 1497.61 699.574 1497.56 699.95H1468.34C1468.5 705.048 1469.76 708.966 1472.12 711.702C1474.48 714.439 1478.24 715.808 1483.39 715.808C1486.23 715.808 1488.49 715.54 1490.15 715.003C1491.81 714.466 1493.02 714.01 1493.77 713.634L1494.74 718.142C1493.99 718.572 1492.58 719.081 1490.52 719.672C1488.45 720.262 1486.02 720.557 1483.23 720.557C1479.58 720.557 1476.47 720.021 1473.89 718.947C1471.31 717.874 1469.19 716.371 1467.53 714.439C1465.87 712.507 1464.66 710.211 1463.91 707.549C1463.16 704.898 1462.78 701.989 1462.78 698.823ZM1468.5 695.522H1492.32C1492.22 691.175 1491.2 687.795 1489.27 685.38C1487.33 682.965 1484.6 681.757 1481.05 681.757C1479.18 681.757 1477.5 682.133 1476.03 682.884C1474.55 683.635 1473.26 684.639 1472.17 685.895C1471.06 687.161 1470.2 688.626 1469.59 690.29C1468.97 691.954 1468.6 693.698 1468.5 695.522ZM1571.89 678.054V719.672H1566.66V678.054H1571.89ZM1573.1 665.497C1573.1 666.731 1572.72 667.708 1571.97 668.427C1571.22 669.156 1570.31 669.521 1569.23 669.521C1568.16 669.521 1567.25 669.156 1566.5 668.427C1565.74 667.708 1565.37 666.731 1565.37 665.497C1565.37 664.262 1565.74 663.28 1566.5 662.55C1567.25 661.831 1568.16 661.472 1569.23 661.472C1570.31 661.472 1571.22 661.831 1571.97 662.55C1572.72 663.28 1573.1 664.262 1573.1 665.497ZM1613.72 715.969C1616.72 715.969 1619.2 715.47 1621.15 714.472C1623.12 713.484 1624.1 711.81 1624.1 709.449C1624.1 708.322 1623.92 707.356 1623.57 706.551C1623.23 705.746 1622.65 705.021 1621.85 704.377C1621.04 703.733 1619.98 703.116 1618.66 702.526C1617.35 701.935 1615.73 701.238 1613.8 700.433C1612.24 699.789 1610.76 699.129 1609.37 698.452C1607.97 697.787 1606.74 697.009 1605.67 696.118C1604.59 695.238 1603.73 694.181 1603.09 692.946C1602.45 691.712 1602.12 690.209 1602.12 688.438C1602.12 685.058 1603.4 682.321 1605.94 680.228C1608.49 678.135 1612 677.088 1616.45 677.088C1619.3 677.088 1621.64 677.33 1623.49 677.813C1625.35 678.296 1626.65 678.725 1627.4 679.101L1626.19 683.77C1625.55 683.448 1624.46 683.018 1622.92 682.482C1621.4 681.945 1619.16 681.677 1616.21 681.677C1615.03 681.677 1613.91 681.795 1612.86 682.031C1611.82 682.278 1610.9 682.653 1610.09 683.158C1609.29 683.673 1608.64 684.317 1608.16 685.09C1607.68 685.873 1607.44 686.829 1607.44 687.956C1607.44 689.082 1607.65 690.048 1608.08 690.853C1608.51 691.658 1609.14 692.372 1609.96 692.995C1610.8 693.606 1611.82 694.181 1613.02 694.717C1614.24 695.254 1615.62 695.844 1617.18 696.488C1618.79 697.132 1620.33 697.787 1621.8 698.452C1623.28 699.129 1624.58 699.934 1625.71 700.867C1626.84 701.812 1627.75 702.939 1628.45 704.248C1629.14 705.569 1629.49 707.221 1629.49 709.207C1629.49 712.964 1628.08 715.808 1625.26 717.74C1622.45 719.672 1618.6 720.638 1613.72 720.638C1610.07 720.638 1607.28 720.332 1605.34 719.72C1603.41 719.098 1602.12 718.625 1601.48 718.303L1602.85 713.554C1603.01 713.661 1603.36 713.833 1603.9 714.069C1604.43 714.316 1605.16 714.584 1606.07 714.874C1606.98 715.175 1608.06 715.432 1609.32 715.647C1610.59 715.862 1612.05 715.969 1613.72 715.969ZM1702.12 683.126V712.185C1702.6 712.561 1703.21 712.964 1703.94 713.393C1704.66 713.822 1705.5 714.225 1706.47 714.6C1707.43 714.976 1708.48 715.282 1709.61 715.518C1710.73 715.765 1711.91 715.888 1713.15 715.888C1715.72 715.888 1717.89 715.443 1719.64 714.552C1721.37 713.672 1722.78 712.465 1723.85 710.93C1724.93 709.406 1725.7 707.608 1726.19 705.536C1726.67 703.476 1726.91 701.291 1726.91 698.984C1726.91 693.51 1725.54 689.308 1722.81 686.378C1720.07 683.458 1716.45 681.999 1711.94 681.999C1709.36 681.999 1707.29 682.117 1705.71 682.353C1704.12 682.6 1702.92 682.857 1702.12 683.126ZM1702.12 717.257V734.564H1696.89V679.503C1698.44 678.967 1700.43 678.457 1702.84 677.974C1705.26 677.491 1708.32 677.249 1712.02 677.249C1715.08 677.249 1717.86 677.743 1720.36 678.73C1722.85 679.729 1725 681.167 1726.8 683.045C1728.59 684.923 1729.99 687.204 1730.99 689.887C1731.97 692.571 1732.47 695.603 1732.47 698.984C1732.47 702.15 1732.05 705.059 1731.23 707.71C1730.39 710.372 1729.17 712.652 1727.56 714.552C1725.95 716.463 1723.98 717.954 1721.65 719.028C1719.31 720.101 1716.64 720.638 1713.63 720.638C1710.89 720.638 1708.52 720.246 1706.51 719.462C1704.5 718.69 1703.03 717.954 1702.12 717.257ZM1798.78 698.903C1798.78 702.177 1798.31 705.155 1797.36 707.839C1796.43 710.522 1795.12 712.803 1793.42 714.681C1791.73 716.559 1789.74 718.019 1787.43 719.06C1785.12 720.112 1782.57 720.638 1779.78 720.638C1776.99 720.638 1774.44 720.112 1772.14 719.06C1769.83 718.019 1767.83 716.559 1766.13 714.681C1764.45 712.803 1763.13 710.522 1762.19 707.839C1761.25 705.155 1760.79 702.177 1760.79 698.903C1760.79 695.63 1761.25 692.651 1762.19 689.968C1763.13 687.285 1764.45 684.988 1766.13 683.077C1767.83 681.178 1769.83 679.702 1772.14 678.65C1774.44 677.609 1776.99 677.088 1779.78 677.088C1782.57 677.088 1785.12 677.609 1787.43 678.65C1789.74 679.702 1791.73 681.178 1793.42 683.077C1795.12 684.988 1796.43 687.285 1797.36 689.968C1798.31 692.651 1798.78 695.63 1798.78 698.903ZM1793.23 698.903C1793.23 693.698 1792.02 689.549 1789.6 686.458C1787.19 683.378 1783.92 681.838 1779.78 681.838C1775.65 681.838 1772.38 683.378 1769.96 686.458C1767.55 689.549 1766.34 693.698 1766.34 698.903C1766.34 704.109 1767.55 708.241 1769.96 711.3C1772.38 714.359 1775.65 715.888 1779.78 715.888C1783.92 715.888 1787.19 714.359 1789.6 711.3C1792.02 708.241 1793.23 704.109 1793.23 698.903ZM1851.88 678.054H1856.39C1856.87 680.738 1857.5 683.593 1858.27 686.619C1859.05 689.657 1859.91 692.742 1860.85 695.877C1861.79 699.021 1862.78 702.123 1863.82 705.182C1864.88 708.241 1865.94 711.112 1867.01 713.795C1867.92 711.756 1868.89 709.271 1869.91 706.341C1870.93 703.422 1871.95 700.336 1872.97 697.084C1873.99 693.843 1874.94 690.569 1875.82 687.263C1876.71 683.968 1877.45 680.898 1878.04 678.054H1883.19C1881.26 686.211 1879.15 693.671 1876.86 700.433C1874.59 707.195 1872.08 713.608 1869.35 719.672H1864.44C1863.63 717.793 1862.78 715.684 1861.89 713.345C1861.01 711.016 1860.1 708.52 1859.15 705.858C1858.22 703.207 1857.31 700.417 1856.42 697.486C1855.54 694.567 1854.7 691.578 1853.89 688.519C1853.09 691.578 1852.24 694.567 1851.35 697.486C1850.47 700.417 1849.55 703.207 1848.61 705.858C1847.68 708.52 1846.76 711.016 1845.87 713.345C1844.99 715.684 1844.15 717.793 1843.34 719.672H1838.35C1835.62 713.608 1833.11 707.195 1830.82 700.433C1828.54 693.671 1826.44 686.211 1824.51 678.054H1830.06C1830.65 680.898 1831.39 683.968 1832.27 687.263C1833.16 690.569 1834.11 693.843 1835.13 697.084C1836.15 700.336 1837.18 703.411 1838.23 706.309C1839.28 709.207 1840.26 711.676 1841.17 713.715C1842.19 711.032 1843.22 708.161 1844.26 705.102C1845.31 702.043 1846.3 698.957 1847.21 695.844C1848.12 692.732 1848.98 689.657 1849.78 686.619C1850.59 683.593 1851.29 680.738 1851.88 678.054ZM1908.92 698.823C1908.92 695.174 1909.44 691.991 1910.5 689.276C1911.54 686.571 1912.91 684.306 1914.6 682.482C1916.29 680.657 1918.22 679.299 1920.4 678.408C1922.57 677.528 1924.8 677.088 1927.11 677.088C1932.21 677.088 1936.28 678.752 1939.31 682.079C1942.34 685.406 1943.85 690.531 1943.85 697.454C1943.85 697.884 1943.84 698.313 1943.82 698.742C1943.79 699.172 1943.75 699.574 1943.69 699.95H1914.47C1914.63 705.048 1915.9 708.966 1918.26 711.702C1920.62 714.439 1924.37 715.808 1929.53 715.808C1932.37 715.808 1934.62 715.54 1936.29 715.003C1937.95 714.466 1939.16 714.01 1939.91 713.634L1940.88 718.142C1940.13 718.572 1938.72 719.081 1936.66 719.672C1934.59 720.262 1932.16 720.557 1929.37 720.557C1925.72 720.557 1922.6 720.021 1920.03 718.947C1917.45 717.874 1915.33 716.371 1913.67 714.439C1912 712.507 1910.8 710.211 1910.05 707.549C1909.29 704.898 1908.92 701.989 1908.92 698.823ZM1914.63 695.522H1938.46C1938.35 691.175 1937.33 687.795 1935.4 685.38C1933.47 682.965 1930.73 681.757 1927.19 681.757C1925.31 681.757 1923.64 682.133 1922.17 682.884C1920.69 683.635 1919.4 684.639 1918.3 685.895C1917.2 687.161 1916.34 688.626 1915.73 690.29C1915.11 691.954 1914.74 693.698 1914.63 695.522ZM1989.14 677.249C1990.86 677.249 1992.49 677.383 1994.02 677.652C1995.55 677.92 1996.6 678.188 1997.19 678.457L1996.15 682.965C1995.72 682.75 1994.85 682.519 1993.54 682.272C1992.22 682.036 1990.48 681.918 1988.34 681.918C1986.08 681.918 1984.28 682.079 1982.91 682.401C1981.54 682.723 1980.64 682.991 1980.21 683.206V719.672H1974.98V679.986C1976.32 679.396 1978.17 678.789 1980.53 678.167C1982.89 677.555 1985.76 677.249 1989.14 677.249Z" stroke="black" stroke-width="6" mask="url(#path-3-outside-2_1_2)"/>
</g>
</g>
</g>
</g>
<g clip-path="url(#clip13_1_2)">
<g clip-path="url(#clip14_1_2)">
<mask id="path-4-outside-3_1_2" maskUnits="userSpaceOnUse" x="-3.62012" y="314.961" width="938" height="619" fill="black">
<rect fill="white" x="-3.62012" y="314.961" width="938" height="619"/>
<path d="M310.984 930.16H231.505C218.617 930.16 212.173 924.79 210.024 919.419C202.506 905.457 218.617 881.828 223.987 874.31V653.059C223.987 636.949 213.247 628.356 191.766 628.356C185.322 628.356 181.026 629.431 181.026 629.431C178.878 629.431 176.729 629.431 175.655 628.356C174.581 627.282 173.507 625.134 173.507 622.986V591.839C173.507 587.543 176.729 584.321 181.026 584.321H217.543V578.951C217.543 574.655 220.765 571.433 225.061 571.433H234.727V487.658H117.658C113.362 487.658 110.139 484.436 110.139 480.14V466.177H68.2521C66.1041 466.177 65.03 465.103 63.956 464.029L42.4753 445.771C40.3273 444.697 40.3273 442.549 40.3273 440.401V433.956H8.10628C3.81014 433.956 0.588046 430.734 0.588046 426.438V399.587C-0.485987 396.365 2.73611 393.143 7.03224 393.143H39.2532V386.699C39.2532 384.551 40.3273 382.403 41.4013 381.329L62.882 363.07C63.956 361.996 66.1041 360.922 67.1781 360.922H110.139C110.139 354.478 110.139 348.034 110.139 342.664C110.139 338.368 113.362 335.145 117.658 335.145C144.508 335.145 171.359 335.145 198.21 335.145H230.431C232.579 335.145 234.727 336.219 235.801 338.368L236.875 340.516L244.394 324.405C245.468 322.257 247.616 320.109 250.838 320.109H301.317C303.465 320.109 305.613 321.183 307.761 323.331L317.428 339.442L324.946 324.405C326.02 322.257 328.168 320.109 331.39 320.109H469.94C474.237 320.109 477.459 323.331 477.459 327.627C477.459 327.627 477.459 327.627 477.459 328.701C477.459 330.849 476.385 349.108 476.385 351.256C476.385 358.774 478.533 363.07 482.829 369.515C492.495 382.403 503.235 388.847 516.124 388.847H663.266C666.488 388.847 671.859 388.847 672.933 387.773C672.933 387.773 672.933 385.625 672.933 379.181C672.933 372.737 671.859 370.589 671.859 370.589C671.859 370.589 670.785 370.589 669.711 370.589C667.563 370.589 665.414 370.589 663.266 370.589H660.044C645.008 371.663 632.119 371.663 620.305 370.589C569.826 366.292 560.159 344.812 562.307 327.627C562.307 324.405 565.529 321.183 569.826 321.183H667.563C678.303 321.183 689.043 321.183 699.784 320.109C710.524 317.961 722.338 317.961 733.079 317.961C745.967 317.961 757.781 319.035 767.448 320.109C781.41 322.257 790.002 337.294 796.447 349.108C798.595 352.33 799.669 354.478 801.817 357.7L822.223 388.847C824.371 392.069 823.297 395.291 821.149 397.439C820.075 398.513 801.817 416.772 823.297 468.326C824.371 470.474 917.812 672.392 930.701 874.31C930.701 875.384 930.701 875.384 930.701 876.458C930.701 880.754 927.479 883.976 923.182 883.976H729.856C727.708 883.976 726.634 882.902 724.486 881.828C723.412 880.754 722.338 878.606 722.338 876.458C723.412 816.312 719.116 651.985 689.043 620.838C685.821 617.616 683.673 616.542 680.451 616.542H494.643C445.238 616.542 380.796 574.655 342.131 549.952C332.464 543.508 321.724 537.064 318.502 535.99H316.354V570.359H319.576C323.872 570.359 327.094 573.581 327.094 577.877V583.247H359.315C363.611 583.247 366.833 586.469 366.833 590.765V621.912C366.833 624.06 365.759 626.208 364.685 627.282C363.611 628.356 361.463 629.431 359.315 629.431C359.315 629.431 356.093 629.431 351.797 629.431C330.316 629.431 319.576 638.023 319.576 654.133V876.458C326.02 883.976 341.057 907.605 333.538 921.567C330.316 924.79 324.946 930.16 310.984 930.16ZM191.766 613.32C221.839 613.32 239.023 627.282 239.023 651.985V876.458C239.023 877.532 239.023 879.68 237.949 880.754C229.357 891.495 221.839 907.605 223.987 912.975C225.061 914.049 228.283 915.123 232.579 915.123H312.058C316.354 915.123 319.576 914.049 320.65 912.975C322.798 907.605 315.28 891.495 306.687 880.754C305.613 879.68 305.613 877.532 305.613 876.458V653.059C305.613 628.356 322.798 614.394 351.797 614.394H352.871V597.21H320.65C316.354 597.21 313.132 593.987 313.132 589.691V584.321H309.91C305.613 584.321 302.391 581.099 302.391 576.803V528.471C302.391 524.175 305.613 520.953 309.91 520.953H319.576C323.872 520.953 330.316 524.175 349.649 537.064C384.018 559.618 449.534 601.506 494.643 601.506H679.377C685.821 601.506 692.265 604.728 697.635 610.098C735.227 648.763 736.301 825.979 735.227 868.94H914.59C900.628 671.318 810.409 475.844 809.335 473.696C790.002 426.438 800.743 400.661 807.187 390.995L790.002 364.144C787.854 360.922 786.78 357.7 784.632 354.478C779.262 344.812 773.892 334.071 766.374 332.997C757.781 331.923 747.041 330.849 734.153 330.849C723.412 330.849 711.598 331.923 699.784 331.923C689.043 331.923 677.229 332.997 666.489 332.997H576.27C579.492 344.812 594.528 351.256 621.379 353.404C633.193 354.478 645.008 354.478 658.97 353.404H662.192C665.414 353.404 667.563 353.404 669.711 353.404C685.821 353.404 687.969 365.218 687.969 377.033C687.969 398.513 680.451 400.661 663.266 400.661H515.05C497.865 400.661 483.903 392.069 471.014 375.959C464.57 368.44 462.422 360.922 461.348 350.182C461.348 350.182 461.348 341.59 461.348 332.997H335.686L324.946 356.626C323.872 358.774 321.724 360.922 318.502 360.922C315.28 360.922 313.132 359.848 312.058 357.7L297.021 332.997H255.134L244.394 356.626C243.32 358.774 241.171 360.922 239.023 360.922C236.875 360.922 233.653 359.848 232.579 357.7L226.135 350.182H197.136C172.433 350.182 148.805 350.182 124.102 350.182C124.102 355.552 124.102 359.848 124.102 365.218V369.515C124.102 373.811 120.88 377.033 116.584 377.033H69.3262L52.1416 390.995V401.736C52.1416 406.032 48.9195 409.254 44.6234 409.254H13.4764V422.142H45.6974C49.9936 422.142 53.2157 425.364 53.2157 429.66V440.401L70.4002 454.363H117.658C121.954 454.363 125.176 457.585 125.176 461.881V475.844H240.097C244.394 475.844 247.616 479.066 247.616 483.362V581.099C247.616 585.395 244.394 588.617 240.097 588.617H230.431V593.987C230.431 598.284 227.209 601.506 222.913 601.506H186.396V617.616C188.544 613.32 190.692 613.32 191.766 613.32Z"/>
</mask>
<path d="M310.984 930.16H231.505C218.617 930.16 212.173 924.79 210.024 919.419C202.506 905.457 218.617 881.828 223.987 874.31V653.059C223.987 636.949 213.247 628.356 191.766 628.356C185.322 628.356 181.026 629.431 181.026 629.431C178.878 629.431 176.729 629.431 175.655 628.356C174.581 627.282 173.507 625.134 173.507 622.986V591.839C173.507 587.543 176.729 584.321 181.026 584.321H217.543V578.951C217.543 574.655 220.765 571.433 225.061 571.433H234.727V487.658H117.658C113.362 487.658 110.139 484.436 110.139 480.14V466.177H68.2521C66.1041 466.177 65.03 465.103 63.956 464.029L42.4753 445.771C40.3273 444.697 40.3273 442.549 40.3273 440.401V433.956H8.10628C3.81014 433.956 0.588046 430.734 0.588046 426.438V399.587C-0.485987 396.365 2.73611 393.143 7.03224 393.143H39.2532V386.699C39.2532 384.551 40.3273 382.403 41.4013 381.329L62.882 363.07C63.956 361.996 66.1041 360.922 67.1781 360.922H110.139C110.139 354.478 110.139 348.034 110.139 342.664C110.139 338.368 113.362 335.145 117.658 335.145C144.508 335.145 171.359 335.145 198.21 335.145H230.431C232.579 335.145 234.727 336.219 235.801 338.368L236.875 340.516L244.394 324.405C245.468 322.257 247.616 320.109 250.838 320.109H301.317C303.465 320.109 305.613 321.183 307.761 323.331L317.428 339.442L324.946 324.405C326.02 322.257 328.168 320.109 331.39 320.109H469.94C474.237 320.109 477.459 323.331 477.459 327.627C477.459 327.627 477.459 327.627 477.459 328.701C477.459 330.849 476.385 349.108 476.385 351.256C476.385 358.774 478.533 363.07 482.829 369.515C492.495 382.403 503.235 388.847 516.124 388.847H663.266C666.488 388.847 671.859 388.847 672.933 387.773C672.933 387.773 672.933 385.625 672.933 379.181C672.933 372.737 671.859 370.589 671.859 370.589C671.859 370.589 670.785 370.589 669.711 370.589C667.563 370.589 665.414 370.589 663.266 370.589H660.044C645.008 371.663 632.119 371.663 620.305 370.589C569.826 366.292 560.159 344.812 562.307 327.627C562.307 324.405 565.529 321.183 569.826 321.183H667.563C678.303 321.183 689.043 321.183 699.784 320.109C710.524 317.961 722.338 317.961 733.079 317.961C745.967 317.961 757.781 319.035 767.448 320.109C781.41 322.257 790.002 337.294 796.447 349.108C798.595 352.33 799.669 354.478 801.817 357.7L822.223 388.847C824.371 392.069 823.297 395.291 821.149 397.439C820.075 398.513 801.817 416.772 823.297 468.326C824.371 470.474 917.812 672.392 930.701 874.31C930.701 875.384 930.701 875.384 930.701 876.458C930.701 880.754 927.479 883.976 923.182 883.976H729.856C727.708 883.976 726.634 882.902 724.486 881.828C723.412 880.754 722.338 878.606 722.338 876.458C723.412 816.312 719.116 651.985 689.043 620.838C685.821 617.616 683.673 616.542 680.451 616.542H494.643C445.238 616.542 380.796 574.655 342.131 549.952C332.464 543.508 321.724 537.064 318.502 535.99H316.354V570.359H319.576C323.872 570.359 327.094 573.581 327.094 577.877V583.247H359.315C363.611 583.247 366.833 586.469 366.833 590.765V621.912C366.833 624.06 365.759 626.208 364.685 627.282C363.611 628.356 361.463 629.431 359.315 629.431C359.315 629.431 356.093 629.431 351.797 629.431C330.316 629.431 319.576 638.023 319.576 654.133V876.458C326.02 883.976 341.057 907.605 333.538 921.567C330.316 924.79 324.946 930.16 310.984 930.16ZM191.766 613.32C221.839 613.32 239.023 627.282 239.023 651.985V876.458C239.023 877.532 239.023 879.68 237.949 880.754C229.357 891.495 221.839 907.605 223.987 912.975C225.061 914.049 228.283 915.123 232.579 915.123H312.058C316.354 915.123 319.576 914.049 320.65 912.975C322.798 907.605 315.28 891.495 306.687 880.754C305.613 879.68 305.613 877.532 305.613 876.458V653.059C305.613 628.356 322.798 614.394 351.797 614.394H352.871V597.21H320.65C316.354 597.21 313.132 593.987 313.132 589.691V584.321H309.91C305.613 584.321 302.391 581.099 302.391 576.803V528.471C302.391 524.175 305.613 520.953 309.91 520.953H319.576C323.872 520.953 330.316 524.175 349.649 537.064C384.018 559.618 449.534 601.506 494.643 601.506H679.377C685.821 601.506 692.265 604.728 697.635 610.098C735.227 648.763 736.301 825.979 735.227 868.94H914.59C900.628 671.318 810.409 475.844 809.335 473.696C790.002 426.438 800.743 400.661 807.187 390.995L790.002 364.144C787.854 360.922 786.78 357.7 784.632 354.478C779.262 344.812 773.892 334.071 766.374 332.997C757.781 331.923 747.041 330.849 734.153 330.849C723.412 330.849 711.598 331.923 699.784 331.923C689.043 331.923 677.229 332.997 666.489 332.997H576.27C579.492 344.812 594.528 351.256 621.379 353.404C633.193 354.478 645.008 354.478 658.97 353.404H662.192C665.414 353.404 667.563 353.404 669.711 353.404C685.821 353.404 687.969 365.218 687.969 377.033C687.969 398.513 680.451 400.661 663.266 400.661H515.05C497.865 400.661 483.903 392.069 471.014 375.959C464.57 368.44 462.422 360.922 461.348 350.182C461.348 350.182 461.348 341.59 461.348 332.997H335.686L324.946 356.626C323.872 358.774 321.724 360.922 318.502 360.922C315.28 360.922 313.132 359.848 312.058 357.7L297.021 332.997H255.134L244.394 356.626C243.32 358.774 241.171 360.922 239.023 360.922C236.875 360.922 233.653 359.848 232.579 357.7L226.135 350.182H197.136C172.433 350.182 148.805 350.182 124.102 350.182C124.102 355.552 124.102 359.848 124.102 365.218V369.515C124.102 373.811 120.88 377.033 116.584 377.033H69.3262L52.1416 390.995V401.736C52.1416 406.032 48.9195 409.254 44.6234 409.254H13.4764V422.142H45.6974C49.9936 422.142 53.2157 425.364 53.2157 429.66V440.401L70.4002 454.363H117.658C121.954 454.363 125.176 457.585 125.176 461.881V475.844H240.097C244.394 475.844 247.616 479.066 247.616 483.362V581.099C247.616 585.395 244.394 588.617 240.097 588.617H230.431V593.987C230.431 598.284 227.209 601.506 222.913 601.506H186.396V617.616C188.544 613.32 190.692 613.32 191.766 613.32Z" fill="#FF9302"/>
<path d="M310.984 930.16H231.505C218.617 930.16 212.173 924.79 210.024 919.419C202.506 905.457 218.617 881.828 223.987 874.31V653.059C223.987 636.949 213.247 628.356 191.766 628.356C185.322 628.356 181.026 629.431 181.026 629.431C178.878 629.431 176.729 629.431 175.655 628.356C174.581 627.282 173.507 625.134 173.507 622.986V591.839C173.507 587.543 176.729 584.321 181.026 584.321H217.543V578.951C217.543 574.655 220.765 571.433 225.061 571.433H234.727V487.658H117.658C113.362 487.658 110.139 484.436 110.139 480.14V466.177H68.2521C66.1041 466.177 65.03 465.103 63.956 464.029L42.4753 445.771C40.3273 444.697 40.3273 442.549 40.3273 440.401V433.956H8.10628C3.81014 433.956 0.588046 430.734 0.588046 426.438V399.587C-0.485987 396.365 2.73611 393.143 7.03224 393.143H39.2532V386.699C39.2532 384.551 40.3273 382.403 41.4013 381.329L62.882 363.07C63.956 361.996 66.1041 360.922 67.1781 360.922H110.139C110.139 354.478 110.139 348.034 110.139 342.664C110.139 338.368 113.362 335.145 117.658 335.145C144.508 335.145 171.359 335.145 198.21 335.145H230.431C232.579 335.145 234.727 336.219 235.801 338.368L236.875 340.516L244.394 324.405C245.468 322.257 247.616 320.109 250.838 320.109H301.317C303.465 320.109 305.613 321.183 307.761 323.331L317.428 339.442L324.946 324.405C326.02 322.257 328.168 320.109 331.39 320.109H469.94C474.237 320.109 477.459 323.331 477.459 327.627C477.459 327.627 477.459 327.627 477.459 328.701C477.459 330.849 476.385 349.108 476.385 351.256C476.385 358.774 478.533 363.07 482.829 369.515C492.495 382.403 503.235 388.847 516.124 388.847H663.266C666.488 388.847 671.859 388.847 672.933 387.773C672.933 387.773 672.933 385.625 672.933 379.181C672.933 372.737 671.859 370.589 671.859 370.589C671.859 370.589 670.785 370.589 669.711 370.589C667.563 370.589 665.414 370.589 663.266 370.589H660.044C645.008 371.663 632.119 371.663 620.305 370.589C569.826 366.292 560.159 344.812 562.307 327.627C562.307 324.405 565.529 321.183 569.826 321.183H667.563C678.303 321.183 689.043 321.183 699.784 320.109C710.524 317.961 722.338 317.961 733.079 317.961C745.967 317.961 757.781 319.035 767.448 320.109C781.41 322.257 790.002 337.294 796.447 349.108C798.595 352.33 799.669 354.478 801.817 357.7L822.223 388.847C824.371 392.069 823.297 395.291 821.149 397.439C820.075 398.513 801.817 416.772 823.297 468.326C824.371 470.474 917.812 672.392 930.701 874.31C930.701 875.384 930.701 875.384 930.701 876.458C930.701 880.754 927.479 883.976 923.182 883.976H729.856C727.708 883.976 726.634 882.902 724.486 881.828C723.412 880.754 722.338 878.606 722.338 876.458C723.412 816.312 719.116 651.985 689.043 620.838C685.821 617.616 683.673 616.542 680.451 616.542H494.643C445.238 616.542 380.796 574.655 342.131 549.952C332.464 543.508 321.724 537.064 318.502 535.99H316.354V570.359H319.576C323.872 570.359 327.094 573.581 327.094 577.877V583.247H359.315C363.611 583.247 366.833 586.469 366.833 590.765V621.912C366.833 624.06 365.759 626.208 364.685 627.282C363.611 628.356 361.463 629.431 359.315 629.431C359.315 629.431 356.093 629.431 351.797 629.431C330.316 629.431 319.576 638.023 319.576 654.133V876.458C326.02 883.976 341.057 907.605 333.538 921.567C330.316 924.79 324.946 930.16 310.984 930.16ZM191.766 613.32C221.839 613.32 239.023 627.282 239.023 651.985V876.458C239.023 877.532 239.023 879.68 237.949 880.754C229.357 891.495 221.839 907.605 223.987 912.975C225.061 914.049 228.283 915.123 232.579 915.123H312.058C316.354 915.123 319.576 914.049 320.65 912.975C322.798 907.605 315.28 891.495 306.687 880.754C305.613 879.68 305.613 877.532 305.613 876.458V653.059C305.613 628.356 322.798 614.394 351.797 614.394H352.871V597.21H320.65C316.354 597.21 313.132 593.987 313.132 589.691V584.321H309.91C305.613 584.321 302.391 581.099 302.391 576.803V528.471C302.391 524.175 305.613 520.953 309.91 520.953H319.576C323.872 520.953 330.316 524.175 349.649 537.064C384.018 559.618 449.534 601.506 494.643 601.506H679.377C685.821 601.506 692.265 604.728 697.635 610.098C735.227 648.763 736.301 825.979 735.227 868.94H914.59C900.628 671.318 810.409 475.844 809.335 473.696C790.002 426.438 800.743 400.661 807.187 390.995L790.002 364.144C787.854 360.922 786.78 357.7 784.632 354.478C779.262 344.812 773.892 334.071 766.374 332.997C757.781 331.923 747.041 330.849 734.153 330.849C723.412 330.849 711.598 331.923 699.784 331.923C689.043 331.923 677.229 332.997 666.489 332.997H576.27C579.492 344.812 594.528 351.256 621.379 353.404C633.193 354.478 645.008 354.478 658.97 353.404H662.192C665.414 353.404 667.563 353.404 669.711 353.404C685.821 353.404 687.969 365.218 687.969 377.033C687.969 398.513 680.451 400.661 663.266 400.661H515.05C497.865 400.661 483.903 392.069 471.014 375.959C464.57 368.44 462.422 360.922 461.348 350.182C461.348 350.182 461.348 341.59 461.348 332.997H335.686L324.946 356.626C323.872 358.774 321.724 360.922 318.502 360.922C315.28 360.922 313.132 359.848 312.058 357.7L297.021 332.997H255.134L244.394 356.626C243.32 358.774 241.171 360.922 239.023 360.922C236.875 360.922 233.653 359.848 232.579 357.7L226.135 350.182H197.136C172.433 350.182 148.805 350.182 124.102 350.182C124.102 355.552 124.102 359.848 124.102 365.218V369.515C124.102 373.811 120.88 377.033 116.584 377.033H69.3262L52.1416 390.995V401.736C52.1416 406.032 48.9195 409.254 44.6234 409.254H13.4764V422.142H45.6974C49.9936 422.142 53.2157 425.364 53.2157 429.66V440.401L70.4002 454.363H117.658C121.954 454.363 125.176 457.585 125.176 461.881V475.844H240.097C244.394 475.844 247.616 479.066 247.616 483.362V581.099C247.616 585.395 244.394 588.617 240.097 588.617H230.431V593.987C230.431 598.284 227.209 601.506 222.913 601.506H186.396V617.616C188.544 613.32 190.692 613.32 191.766 613.32Z" stroke="black" stroke-width="6" mask="url(#path-4-outside-3_1_2)"/>
<path d="M270.17 609.024C269.096 609.024 266.948 609.024 265.874 609.024C249.764 607.95 233.653 603.654 219.691 593.987C216.469 591.839 215.395 587.543 217.543 584.321C219.691 581.099 223.987 580.025 227.209 582.173C239.023 589.691 251.912 593.987 265.874 595.061C293.799 596.135 314.206 582.173 314.206 582.173C317.428 580.025 321.724 581.099 323.872 584.321C326.02 587.543 324.946 591.839 321.724 593.987C321.724 595.061 300.243 609.024 270.17 609.024Z" fill="#FF9302"/>
<path d="M286.281 821.682C283.059 821.682 279.837 819.534 279.837 816.312C278.763 812.016 280.911 808.794 285.207 807.72C297.021 804.498 305.613 796.98 305.613 796.98C308.836 794.832 313.132 794.832 315.28 798.054C317.428 801.276 317.428 805.572 314.206 807.72C314.206 807.72 303.465 816.312 288.429 820.608C287.355 821.682 286.281 821.682 286.281 821.682Z" fill="#FF9302"/>
<path d="M729.856 833.497C725.56 833.497 722.338 830.275 722.338 825.979C722.338 821.682 725.56 818.46 729.856 818.46C748.115 818.46 767.448 799.128 773.892 791.61C776.04 788.387 781.41 788.387 783.558 790.535C786.78 792.684 786.78 798.054 784.632 800.202C783.558 803.424 758.855 833.497 729.856 833.497Z" fill="#FF9302"/>
<path d="M729.856 790.536C725.56 790.536 722.338 787.313 722.338 783.017C722.338 778.721 725.56 775.499 729.856 775.499C748.115 775.499 767.448 756.166 773.892 748.648C776.04 745.426 781.41 745.426 783.558 747.574C786.78 749.722 786.78 755.092 784.632 757.241C783.558 760.463 758.855 790.536 729.856 790.536Z" fill="#FF9302"/>
<path d="M726.634 752.944C722.338 752.944 719.116 749.722 719.116 745.426C719.116 741.13 722.338 737.908 726.634 737.908C744.893 737.908 764.226 718.575 770.67 711.057C772.818 707.835 778.188 707.835 780.336 709.983C783.558 712.131 783.558 717.501 781.41 719.649C780.336 721.797 754.559 752.944 726.634 752.944Z" fill="#FF9302"/>
<path d="M722.338 715.353C718.042 715.353 714.82 712.131 714.82 707.835C714.82 703.539 718.042 700.317 722.338 700.317C743.819 700.317 765.3 673.466 766.374 673.466C768.522 670.244 773.892 670.244 776.04 672.392C779.262 674.54 779.262 679.91 777.114 682.058C776.04 685.28 750.263 715.353 722.338 715.353Z" fill="#FF9302"/>
<path d="M286.281 859.274C283.059 859.274 279.837 857.126 279.837 853.904C278.763 849.607 280.911 846.385 285.207 845.311C297.021 842.089 305.613 834.571 305.613 834.571C308.836 832.423 313.132 832.423 315.28 835.645C317.428 838.867 317.428 843.163 314.206 845.311C314.206 845.311 303.465 853.904 288.429 858.2C287.355 859.274 286.281 859.274 286.281 859.274Z" fill="#FF9302"/>
<path d="M286.281 894.717C283.059 894.717 279.837 892.569 279.837 889.346C278.763 885.05 280.911 881.828 285.207 880.754C297.021 877.532 305.613 870.014 305.613 870.014C308.836 867.866 313.132 867.866 315.28 871.088C317.428 874.31 317.428 878.606 314.206 880.754C314.206 880.754 303.465 889.346 288.429 893.643C287.355 894.717 286.281 894.717 286.281 894.717Z" fill="#FF9302"/>
<path d="M488.199 502.695H481.755C474.237 502.695 467.792 496.25 467.792 488.732V438.253C467.792 430.734 474.237 424.29 481.755 424.29H488.199C495.717 424.29 502.162 430.734 502.162 438.253V488.732C502.162 496.25 495.717 502.695 488.199 502.695ZM488.199 438.253H481.755V488.732H487.125V438.253H488.199Z" fill="#FF9302"/>
<path d="M488.199 589.691H481.755C474.237 589.691 467.792 583.247 467.792 575.729V525.249C467.792 517.731 474.237 511.287 481.755 511.287H488.199C495.717 511.287 502.162 517.731 502.162 525.249V575.729C502.162 583.247 495.717 589.691 488.199 589.691ZM488.199 525.249H481.755V575.729H487.125V525.249H488.199Z" fill="#FF9302"/>
<path d="M846.926 882.902C845.852 882.902 845.852 882.902 844.778 882.902C841.556 881.828 839.408 877.532 840.482 874.31C866.259 793.758 843.704 644.467 809.335 607.95C781.41 578.951 710.524 604.728 685.821 617.616C682.599 619.764 678.303 617.616 676.155 614.394C674.007 611.172 676.155 606.876 679.377 604.728C681.525 601.506 778.188 554.248 819.001 597.21C859.814 640.171 879.147 798.054 853.37 878.606C852.296 880.754 849.074 882.902 846.926 882.902Z" fill="#FF9302"/>
<path d="M117.658 467.252C113.362 467.252 110.139 464.029 110.139 459.733V368.44C110.139 364.144 113.362 360.922 117.658 360.922C121.954 360.922 125.176 364.144 125.176 368.44V459.733C125.176 464.029 121.954 467.252 117.658 467.252Z" fill="#FF9302"/>
<path d="M46.7714 433.956C42.4753 433.956 39.2532 430.734 39.2532 426.438V399.587C39.2532 395.291 42.4753 392.069 46.7714 392.069C51.0675 392.069 54.2896 395.291 54.2896 399.587V426.438C53.2156 430.734 49.9935 433.956 46.7714 433.956Z" fill="#FF9302"/>
</g>
</g>
</g>
</g>
</g>
</g>
</g>
</g>
</g>
<defs>
<clipPath id="clip0_1_2">
<rect width="2000" height="1247" fill="white"/>
</clipPath>
<clipPath id="clip1_1_2">
<rect width="2000" height="1247" fill="white" transform="translate(-1.21216 0.560364)"/>
</clipPath>
<clipPath id="clip2_1_2">
<rect width="1996.82" height="1248.01" fill="white" transform="translate(0.380005 0.055481)"/>
</clipPath>
<clipPath id="clip3_1_2">
<rect width="1996.82" height="1248.01" fill="white" transform="translate(0.380005 0.055481)"/>
</clipPath>
<clipPath id="clip4_1_2">
<rect width="1996.82" height="612.199" fill="white" transform="translate(0.380005 317.961)"/>
</clipPath>
<clipPath id="clip5_1_2">
<rect width="1996.82" height="612.199" fill="white" transform="translate(0.380005 317.961)"/>
</clipPath>
<clipPath id="clip6_1_2">
<rect width="1996.82" height="612.199" fill="white" transform="translate(0.380005 317.961)"/>
</clipPath>
<clipPath id="clip7_1_2">
<rect width="1048.17" height="221.49" fill="white" transform="translate(949.024 513.315)"/>
</clipPath>
<clipPath id="clip8_1_2">
<rect width="1048.17" height="221.49" fill="white" transform="translate(949.024 513.315)"/>
</clipPath>
<clipPath id="clip9_1_2">
<rect width="1048.17" height="125.567" fill="white" transform="translate(949.024 513.315)"/>
</clipPath>
<clipPath id="clip10_1_2">
<rect width="1048.17" height="125.567" fill="white" transform="translate(949.024 513.315)"/>
</clipPath>
<clipPath id="clip11_1_2">
<rect width="1048.17" height="77.6002" fill="white" transform="translate(949.024 657.205)"/>
</clipPath>
<clipPath id="clip12_1_2">
<rect width="1048.17" height="77.6002" fill="white" transform="translate(949.024 657.205)"/>
</clipPath>
<clipPath id="clip13_1_2">
<rect width="930.321" height="612.199" fill="white" transform="translate(0.380005 317.961)"/>
</clipPath>
<clipPath id="clip14_1_2">
<rect width="930.321" height="612.199" fill="white" transform="translate(0.380005 317.961)"/>
</clipPath>
</defs>
</svg>
